
<svg width="342" height="264" viewBox="0 0 342 264" fill="none" xmlns="http://www.w3.org/2000/svg">
<path fill-rule="evenodd" clip-rule="evenodd" d="M86.2117 158.514C87.9527 157.328 91.5126 153.081 93.3777 152.099C97.5253 149.917 116.002 145.626 116.603 145.373C117.518 144.987 123.462 143.638 126.925 142.786C135.058 140.784 164.201 127.857 171.882 124.542C172.863 127.123 180.958 138.514 179.569 139.681C174.997 143.524 166.801 148.31 161.505 151.064C157.221 153.292 152.684 155.135 148.104 156.64C142.903 158.349 139.334 160.182 134.151 161.93C129.052 163.65 135.146 169.029 137.764 170.141C140.702 171.388 145.251 172.021 148.252 173.101C142.968 181.314 138.531 191.282 137.643 201.119C137.429 203.487 135.624 205.657 132.689 204.948C131.174 204.583 117.197 202.721 114.918 202.201C99.7033 198.732 72.3901 180.562 79.4237 161.93C81.035 162.674 84.7138 159.535 86.2117 158.514Z" fill="#FF4878"/>
<path fill-rule="evenodd" clip-rule="evenodd" d="M94.7235 59.661C95.86 59.5652 98.7991 57.2947 97.2568 56.1463C95.7012 54.9877 94.5833 58.8705 94.7235 59.661ZM35.5151 68.3689C35.8123 68.3164 35.6825 66.6906 35.215 66.4829C33.7383 65.8274 33.6138 68.291 33.5776 68.9503C33.5329 69.7822 33.4285 72.1257 35.2239 71.4832C36.243 71.1186 35.6106 68.9924 35.5151 68.3689ZM122.678 75.9645C122.638 77.4158 125.57 80.2064 126.663 78.5326C127.583 77.1261 122.753 73.0755 122.678 75.9645ZM19.017 43.2334C19.8664 45.4006 24.0677 42.4473 24.2239 40.8577C24.5442 37.6025 18.973 41.0677 19.017 43.2334ZM54.0675 52.5763C56.024 52.4156 58.5983 49.9281 60.4851 48.9989C61.7619 48.3702 65.236 47.6207 65.6137 46.1929C65.9426 44.9524 60.0481 47.6077 59.5447 47.8437C57.2325 48.9269 55.1477 50.1619 54.0675 52.5763ZM200.945 35.4238C202.504 34.2179 204.4 33.44 206.399 33.4911C207.397 33.5165 209.48 34.141 209.558 32.4146C209.685 29.6075 200.869 33.031 199.491 33.5817C199.976 34.1962 200.46 34.81 200.945 35.4238ZM103.661 144.822C102.517 142.922 100.459 141.824 98.9117 140.203C99.4788 142.865 98.2002 145.232 97.3217 147.661C99.4352 146.715 101.548 145.769 103.661 144.822ZM302.334 185.322C302.965 183.212 303.596 181.114 304.333 179.036C305.158 176.709 305.568 176.508 303.594 174.881C301.955 177.978 300.316 181.075 298.678 184.173C299.844 184.669 301.062 185.151 302.334 185.322ZM132.745 32.5768C130.576 30.1314 120.408 29.9778 121.666 35.3749C122.106 37.2594 124.605 35.2574 126.171 34.8182C127.725 34.3819 132.126 34.3241 132.745 32.5768ZM132.373 67.1988C132.11 66.5746 131.585 64.3221 130.805 64.1446C130.046 63.9716 127.05 66.3341 126.487 66.6947C123.678 68.4946 120.94 70.431 118.203 72.339C119.251 72.339 120.203 71.9658 121.245 71.9579C122.483 71.9471 123.37 72.4557 124.577 72.1656C127.171 71.5429 130.181 68.6691 132.373 67.1988ZM135.183 11.3991C135.426 10.2805 148.139 13.6383 149.666 14.2531C150.499 14.5875 154.794 16.8199 153.871 13.4553C153.345 11.539 148.383 10.0782 146.792 9.55302C142.749 8.21851 138.486 7.26927 134.181 7.48942C133.345 7.53185 127.014 7.8972 129.658 10.442C130.569 11.3183 133.834 11.0421 135.183 11.3991ZM137.966 165.079C140.334 166.245 142.752 167.136 145.228 168.047C146.328 168.452 148.041 169.512 149.254 169.246C150.248 169.027 150.566 167.514 151.088 166.501C152.997 162.796 155.276 159.806 158.101 156.751C156.789 155.794 150.129 160.015 148.481 160.638C146.831 161.262 145.274 161.89 143.659 162.636C142.139 163.337 139.139 163.965 137.966 165.079ZM179.902 133.492C183.353 131.93 186.625 129.16 189.456 126.68C192.706 123.832 195.62 120.848 198 117.163C196.568 117.237 193.407 121.842 193.371 116.828C193.353 114.27 196.858 111.75 197.946 109.378C195.24 107.85 192.759 116.98 189.654 114.767C186.662 112.634 191.383 105.302 192.292 102.989C190.537 101.822 180.54 114.89 179.092 116.562C178.187 117.608 176.047 119.002 175.536 120.223C175.232 120.95 175.188 123.256 175.336 123.925C175.642 125.322 177.193 126.997 177.883 128.298C178.757 129.947 179.518 131.659 179.902 133.492ZM322.6 180.606C319.615 176.393 322.699 174.555 325.126 171.058C327.067 168.261 328.853 165.178 330.083 162.054C333.161 154.241 335.937 146.977 337.457 138.712C335.366 139.667 334.058 143.301 333.012 145.215C331.605 147.79 330.367 150.492 328.803 152.986C325.877 157.653 323.004 162.632 319.281 166.677C317.595 168.51 316.167 170.573 314.221 172.225C313.332 172.979 311.631 173.599 310.976 174.542C310.358 175.433 311.049 176.003 310.815 177.067C310.574 178.159 309.469 179.323 308.995 180.374C308.373 181.755 307.793 183.139 307.098 184.489C306.341 185.962 306.134 186.732 305.929 188.171C305.706 189.744 306.391 189.907 305.017 191.357C307.507 192.455 309.997 193.553 312.487 194.651C313.327 195.022 314.167 195.392 315.008 195.763C315.185 195.431 315.362 195.099 315.539 194.766C316.223 194.102 316.853 192.463 317.244 191.585C318.88 187.922 320.728 184.244 322.6 180.606ZM82.1533 162.919C75.0831 181.533 99.9278 197.206 115.222 200.672C117.34 201.152 119.407 201.78 121.516 202.296C123.815 202.858 125.856 202.746 128.152 202.981C129.977 203.168 130.847 204.579 132.568 204.968C135.443 205.617 135.267 203.456 135.473 201.142C136.346 191.325 141.356 181.855 146.658 173.664C144.236 172.797 141.836 171.852 139.445 170.903C137.399 170.091 134.266 167.808 132.067 167.687C130.44 167.599 127.961 168.988 126.381 169.597C123.75 170.613 121.112 171.477 118.369 172.17C113.574 173.381 108.238 175.031 103.276 175.156C101.845 175.192 97.9213 175.858 96.8921 174.974C94.9293 173.288 97.6536 171.883 99.2969 171.282C109.091 167.695 119.489 166.171 129.31 162.494C134.364 160.601 139.366 158.488 144.452 156.624C148.836 155.017 153.428 153.594 157.664 151.618C163.259 149.008 168.878 145.758 173.723 141.928C174.693 141.161 176.725 140.023 177.389 138.913C177.975 137.935 177.902 138.91 177.78 137.725C177.693 136.873 176.651 135.719 176.223 134.915C174.626 131.916 173.183 128.835 171.97 125.661C164.242 128.976 156.889 133.488 149.275 137.03C141.61 140.596 132.965 143.112 124.766 145.118C121.276 145.972 117.264 146.242 114.064 147.929C112.704 148.645 111.36 149.475 109.903 149.889C109.473 150.715 109.05 150.876 108.632 150.375C108.371 150.081 108.033 149.957 107.618 150.003C106.728 150.154 105.819 150.574 104.986 150.898C100.769 152.532 96.7311 154.58 92.7278 156.668C90.8302 157.658 88.8838 158.632 87.0678 159.763C86.0946 160.368 85.2225 160.979 84.426 161.811C83.471 162.809 83.6985 163.629 82.1533 162.919ZM241.246 52.401C243.033 52.4301 244.662 51.4621 246.525 51.5162C249.455 51.6008 251.774 53.8724 253.474 56.0631C256.839 60.3975 255.981 65.6264 254.291 70.4772C253.482 72.7954 252.372 75.0208 250.985 77.05C249.756 78.8465 247.56 80.5458 246.703 82.5459C245.29 85.8448 248.142 84.442 249.888 83.7376C252.084 82.8509 254.143 81.749 256.006 80.2646C264.313 73.6489 270.632 64.4533 272.749 53.8926C273.781 48.7401 273.702 42.7166 270.112 38.5112C266.831 34.6657 261.167 33.4094 256.324 34.1224C251.09 34.8935 246.346 37.1107 242.084 39.9643C240.846 40.7936 239.713 41.699 238.551 42.6263C237.025 43.843 236.112 43.8747 236.493 45.7817C236.777 47.1993 237.549 48.6685 238.046 50.0288C238.977 52.5767 238.638 53.2359 241.246 52.401ZM246.943 96.3269L246.581 96.9447C249.074 97.0633 251.395 94.8648 253.518 93.7916C256.277 92.3967 258.726 90.4939 261.144 88.5724C265.407 85.1833 269.725 81.3639 272.898 76.9146C280.012 66.9412 286.473 54.2964 284.532 41.6512C282.44 28.0228 270.52 22.7767 257.818 24.5808C252.094 25.3938 246.984 27.9493 241.861 30.5439C239.279 31.8515 237.1 33.5485 234.734 35.1907C233.507 36.0435 232.386 36.1542 232.306 37.645C232.246 38.7685 234.188 41.3093 234.713 42.3273C241.145 35.7661 248.077 30.338 257.79 30.0024C269.345 29.6034 276.178 40.5602 276.128 51.0523C276.078 61.342 271.64 71.2398 264.565 78.6347C261.35 81.9955 258.285 84.6922 254.337 87.145C252.369 88.3677 250.917 89.4655 248.717 90.2772C247.16 90.8518 247.323 90.549 246.925 91.9899C246.588 93.2125 246.933 95.0572 246.943 96.3269ZM184.153 236.124C184.002 237.978 183.626 239.804 183.206 241.612C183.056 242.262 182.207 244.312 182.356 245.042C182.602 246.249 182.275 245.473 183.332 246.103C184.435 246.76 185.72 246.721 186.927 246.92C187.673 247.044 190.404 248.329 190.863 248.126C191.667 247.771 191.641 246.52 192.522 246.024C193.723 245.347 195.492 245.927 196.625 246.456C199.653 247.868 201.733 250.792 204.663 252.392C209.866 255.234 216.04 256.807 221.845 257.456C224.99 257.808 228.208 258.425 231.314 257.688C233.761 257.108 236.941 257.161 238.271 254.536C226.45 251.285 208.408 247.307 203.734 233.741C201.193 236.045 196.947 234.804 193.877 234.486C190.499 234.136 187.481 234.218 184.391 232.678C184.165 233.888 184.096 234.893 184.153 236.124ZM79.4924 152.107C85.0569 152.443 90.3324 149.81 93.7566 145.367C94.5997 144.272 95.464 143.156 95.97 141.859C96.08 141.531 96.1893 141.202 96.2989 140.873C96.8303 139.966 96.5976 139.538 95.6016 139.589C95.0404 138.819 93.6175 138.561 94.0225 137.166C94.3271 136.113 95.4521 136.096 96.4298 135.765C95.9428 134.947 95.6516 134.536 94.9547 133.809C93.1436 135.438 89.8566 138.636 88.584 134.893C87.9725 133.096 89.0486 131.378 88.782 129.645C88.6723 128.928 87.7636 127.097 87.2368 126.669C84.4316 124.385 80.3914 125.33 77.4151 126.674C75.3638 127.601 74.9223 128.036 74.5879 130.16C74.2482 132.319 73.9327 134.478 73.5557 136.632C74.7866 135.99 75.0107 134.605 75.8135 133.607C76.1141 134.154 76.415 134.702 76.7166 135.25C77.1402 135.012 77.5359 135.024 77.9028 135.288C78.4968 136.201 78.1232 137.555 77.9405 138.512C79.9212 138.328 80.7583 140.538 78.7615 141.432C76.6932 142.359 75.7602 139.832 75.6901 138.195C74.9182 139.117 74.1255 138.624 73.5874 139.097C73.0501 139.571 72.8383 140.558 72.647 141.639C72.3327 143.415 71.5284 145.977 72.2727 147.759C73.3775 150.405 76.9001 151.782 79.4924 152.107ZM240.736 67.1094C238.895 69.6699 235.756 73.0218 235.099 76.1152C237.127 74.9253 241.415 69.199 242.519 73.7604C243.154 76.3788 239.901 79.4987 239.102 82.0339C242.301 80.9817 244.579 77.6861 246.574 75.1427C249.119 71.8998 251.717 67.625 252.366 63.5013C252.892 60.1644 250.577 57.0542 247.137 56.7272C245.38 56.5602 243.546 56.8391 241.848 57.2466C241.074 57.432 239.92 57.6624 239.229 58.077C238.361 58.598 238.243 59.8173 237.426 58.803C236.34 60.849 235.255 62.895 234.169 64.9403C235.249 64.5484 237.454 62.8846 238.634 63.0565C240.359 63.3082 240.713 65.8125 240.736 67.1094ZM68.3417 17.02C63.5148 17.1623 58.4693 18.1901 53.8997 19.7181C52.765 20.0979 47.9776 21.4486 48.9858 23.4065C49.6522 24.7007 53.2449 22.8719 54.3311 22.567C58.9861 21.2597 63.7792 20.3976 68.5472 19.6109C69.7016 19.4205 73.618 19.4393 73.8201 17.926C74.0677 16.0794 69.705 17.0179 68.3417 17.02ZM199.713 227.631C197.096 227.951 194.584 227.832 191.965 227.511C189.761 227.241 187.517 226.339 185.324 226.339C185.324 228.686 185.165 228.701 187.641 229.204C189.37 229.554 191.123 229.751 192.87 229.996C195.946 230.426 199.361 231.633 202.474 231.013C202.399 230.605 202.16 227.854 201.838 227.582C201.656 227.429 199.977 227.634 199.713 227.631ZM157.427 53.9474C158.158 54.4135 159.84 56.2723 160.712 56.3051C160.401 54.1532 158 50.4065 155.242 51.7362C154.567 52.0625 153.148 53.686 153.79 54.4023C154.132 54.7852 156.53 53.95 157.427 53.9474ZM131.918 73.0911C131.945 72.716 131.972 72.3409 132 71.9661C130.988 72.5609 129.736 72.8424 129.017 73.8007C129.88 74.1833 130.742 74.5662 131.606 74.9492C131.71 74.3298 131.814 73.7105 131.918 73.0911ZM211.594 130.223C216.374 131.897 220.756 134.133 224.275 137.928C227.316 141.209 228.745 146.991 229.488 151.293C231.324 161.937 227.78 171.803 225.443 181.986C224.257 187.151 222.487 192.122 220.829 197.154C219.382 201.548 218.141 206.15 216.144 210.328C214.45 213.871 212.286 217.364 210.796 221.039C209.995 223.017 208.695 229.804 205.652 227.672C204.821 229.844 204.619 229.659 205.507 231.167C206.15 232.259 208.329 233.775 209.358 234.664C212.099 237.034 215.57 238.987 218.786 240.646C224.675 243.686 230.988 245.96 237.053 248.731C239.734 249.957 242.642 251.405 242.04 254.913C241.536 257.853 239.835 260.083 237.181 261.391C234.689 262.62 231.126 263.568 228.385 263.953C226.759 264.182 226.386 263.506 225.06 263.271C223.584 263.012 221.862 263.515 220.34 263.502C213.506 263.442 207.523 261.723 202.001 257.76C200.028 256.344 197.123 252.502 194.54 252.503C193.22 252.503 193.499 253.305 192.338 253.775C190.905 254.355 188.436 253.26 187.027 253.003C184.026 252.455 180.974 251.899 178.975 249.313C176.814 246.52 177.582 243.059 178.511 239.957C179.557 236.459 181.318 232.911 182.067 229.361C182.249 228.498 182.417 226.888 182.232 226.009C181.944 224.646 180.568 223.833 180.526 222.357C180.514 221.908 181.156 221.316 181.269 220.852C181.517 219.834 181.478 218.778 181.581 217.742C181.763 215.894 182.184 214.124 182.475 212.297C183.136 208.142 184.439 204.434 185.701 200.43C186.924 196.544 188.089 193.652 190.456 190.287C191.68 188.545 195.778 182.336 193.777 180.549C191.038 185.929 187.836 190.125 183.644 194.408C180.438 197.684 177.304 202.088 173.291 204.421C168.88 206.986 163.488 208.495 158.617 209.852C156.3 210.496 154.377 211.927 151.879 212.192C149.172 212.478 146.417 212.14 143.765 211.536C143.019 211.367 140.866 210.22 140.191 210.293C139.196 210.401 137.765 212.174 136.673 212.5C134.016 213.293 132.201 211.778 130.185 210.379C127.998 208.86 127.336 208.482 124.811 208.299C121.719 208.076 118.712 206.986 115.671 206.319C110.324 205.146 105.779 202.768 100.919 200.279C95.3477 197.427 90.5822 193.493 86.3829 188.847C80.2098 182.015 71.6127 163.085 81.6969 156.457C75.7602 155.651 70.3232 153.058 69.5995 146.339C69.2214 142.823 69.9332 138.929 70.8173 135.539C71.2208 133.992 71.7018 132.454 72.1626 130.923C72.5098 130.406 72.6936 129.84 72.7127 129.225C72.9256 128.428 72.6187 128.031 71.7913 128.034C70.2278 126.206 69.0521 124.592 68.7362 121.996C68.6367 121.174 68.5476 119.913 69.133 119.213C69.4037 118.932 69.7307 118.744 70.1122 118.65C71.0287 118.702 71.2875 118.251 70.8893 117.296C71.3341 115.943 70.6741 114.889 72.351 114.324C72.8883 114.438 73.4234 114.564 73.9562 114.699C74.6363 115.009 75.0786 114.784 75.2844 114.027C76.8639 113.409 76.1353 112.495 78.2816 113.29C79.5804 113.772 80.8161 114.601 81.7621 115.61C82.9486 114.849 80.2501 110.141 80.1602 108.639C79.9465 105.099 81.4105 102.171 83.3148 99.2633C87.0164 93.6119 92.183 88.7525 97.2781 84.3801C107.037 76.0067 117.29 68.0352 128.309 61.364C123.763 58.2068 118.452 57.351 113.043 58.8183C108.057 60.1711 104.015 62.6281 99.4244 64.777C95.172 66.767 90.6583 67.5848 89.3025 62.1538C87.7834 56.0702 92.6301 53.8116 96.9775 51.0836C95.8921 50.2741 92.3184 50.8528 90.9667 50.9487C87.956 51.1616 85.0767 51.8414 82.151 52.4424C80.7479 52.7303 79.4588 52.6654 78.0687 52.9477C76.0022 53.3672 73.8443 53.837 71.7536 54.4347C66.7794 55.8573 61.842 58.0163 57.5438 60.9255C53.8288 63.4387 51.2515 66.9874 48.2583 70.2557C44.845 73.9823 41.5741 77.6492 36.5137 79.0132C34.144 79.6523 31.3642 80.2322 29.6844 78.1157C28.1213 76.1476 28.034 73.7757 28.0855 71.3695C28.1984 66.0541 30.7661 60.3106 33.7529 55.9673C36.9951 51.2526 41.3377 48.5525 45.4405 44.7577C39.5102 45.1817 33.779 48.3075 28.3252 50.4684C27.1775 50.9233 26.0189 51.4345 24.8649 51.8551C23.6344 52.3041 22.8193 52.0293 21.6402 52.2347C18.9499 52.7042 16.6387 53.8381 14.0216 52.0304C9.0703 48.6107 14.031 41.6539 17.4401 39.5191C22.1883 36.5461 27.019 34.043 32.2502 31.9224C29.4181 28.8506 31.8366 24.4669 34.4472 22.2877C37.7498 19.5302 41.9555 17.9501 45.9353 16.474C49.0824 15.3065 52.1736 14.1856 55.443 13.483C58.8802 12.7447 62.8992 11.6165 66.3867 11.7248C69.6576 11.8263 72.5579 11.25 75.8706 11.1578C78.6269 11.0812 81.3896 11.1475 84.1456 11.0761C91.5607 10.8845 99.003 11.3846 106.25 11.9179C100.508 -4.87242 138.329 0.312754 146.397 2.50589C153.73 4.49921 162.132 6.81141 168.291 11.541C170.901 13.5441 173.379 15.8216 175.694 18.1587C179.11 21.6069 181 26.1226 182.807 30.5796C187.39 28.3349 191.771 25.8886 196.785 24.7754C201.556 23.7167 206.444 22.2815 211.243 21.4816C214.891 20.8732 220.187 20.4606 223.258 23.0369C226.593 25.8352 228.331 30.19 230.321 33.9192C239.882 24.8474 250.546 18.2291 264.178 18.6692C277.516 19.1 286.288 30.6188 287.905 43.1006C289.686 56.8547 283.559 71.2263 275.254 81.8773C271.53 86.6539 267.677 91.2672 262.665 94.8308C260.179 96.5972 257.557 98.5324 254.832 99.9117C253.473 100.599 251.987 101.221 250.56 101.75C249.916 101.989 249.253 102.228 248.583 102.39C246.671 102.854 247.043 102.235 246.331 103.909C245.755 105.268 245.825 107.606 245.578 109.098C245.296 110.802 245.128 112.531 244.716 114.212C244.002 117.127 243.258 119.971 242.364 122.817C240.67 128.204 238.391 133.634 235.6 138.548C237.967 139.576 241.282 139.68 243.812 139.991C246.55 140.328 249.293 141.036 252.137 141.832C257.836 143.425 262.929 144.77 268.348 147.156C273.975 149.633 278.989 153.331 284.407 156.275C289.388 158.981 294.424 162.372 299.051 165.621C300.152 166.394 300.833 167.066 301.71 168.045C302.606 169.045 302.891 169.241 303.963 170.107C304.446 170.498 305.85 172.468 306.402 172.541C307.39 172.672 307.238 171.935 308.013 170.905C309.632 168.757 311.89 167.092 313.498 164.889C314.839 163.052 316.237 161.192 317.67 159.612C321.139 155.79 324.013 151.552 326.479 146.969C327.762 144.583 329.113 142.313 330.507 140.061C331.895 137.819 334.361 134.86 337.125 134.993C336.902 133.851 336.197 133.661 337.415 132.963C338.199 132.514 339.727 133.238 340.331 133.695C341.934 134.904 342.003 137.251 341.902 139.013C341.642 143.555 340.692 148.039 339.367 152.334C337.775 157.497 335.779 162.051 333.601 166.979C331.867 170.904 329.714 176.095 325.399 177.886C328.297 182.024 326.906 185.395 324.969 189.788C323.553 192.999 321.684 196.317 318.836 198.442C315.626 200.837 312.145 198.805 308.788 197.222C306.76 196.265 300.559 194.008 301.82 191.065C300.271 190.859 299.297 189.733 297.887 189.387C296.395 189.021 296.651 189.627 295.072 189.854C293.861 190.028 292.05 188.944 290.91 188.556C289.005 187.908 287.106 187.244 285.205 186.589C279.852 184.745 274.59 182.93 269.184 181.453C259.126 178.705 248.944 177.146 238.922 174.692C236.913 174.2 234.915 173.725 232.823 173.331C232.392 173.25 230.15 173.125 229.878 172.662C229.401 171.852 230.867 167.318 230.993 166.394C231.819 160.328 231.549 153.687 230.386 147.691C229.902 145.197 227.744 141.969 227.762 139.536C227.775 137.904 229.222 136.121 230.071 134.642C232.172 130.986 234.373 127.036 235.93 123.231C238.312 117.41 239.771 110.84 240.824 104.606C241.372 101.356 242.01 97.8333 242.159 94.5456C242.273 92.0395 242.067 89.411 242.431 86.8445C241.044 86.9761 239.082 87.6946 237.832 86.9254C236.255 85.9548 235.831 83.1832 236.032 81.5279C230.631 82.4706 230.81 77.3483 231.145 73.3424C221.382 73.3424 233.885 58.8359 235.447 55.7208C236.164 54.2886 236.143 55.8972 235.826 53.6823C235.687 52.7087 235.022 51.6296 234.645 50.7343C233.825 48.78 232.938 46.8555 231.99 44.9594C229.988 40.9547 227.721 37.0853 225.246 33.3543C223.019 34.9066 221.011 36.7441 219.15 38.7155C220.343 35.5945 223.99 31.7281 222.43 28.1843C220.985 24.8992 216.157 25.127 213.306 25.7275C205.559 27.3609 198.129 29.7399 190.748 32.4944C193.034 33.8054 196.535 32.7927 198.806 31.7904C201.619 30.5487 204.644 29.2462 207.675 28.5885C210.319 28.015 213.791 28.2107 213.027 31.7718C212.408 34.6571 209.586 37.4358 207.724 39.5933C203.621 44.3464 198.476 48.026 193.423 51.7026C187.991 55.6548 182.757 59.9489 177.256 63.7866C167.312 70.7244 156.621 76.7539 146.347 83.2298C141.008 86.5946 134.959 89.3025 129.17 91.7963C122.801 94.5396 116.694 97.4768 110.087 99.6436C106.417 100.847 102.78 101.838 99.1745 103.207C96.9145 104.065 92.9788 105.785 91.4854 103.237C88.4527 98.0619 99.4277 91.2564 102.435 88.0925C104.51 90.1076 94.2786 97.6163 95.0796 100.55C95.7086 102.856 98.1424 99.8785 99.3177 99.2502C101.217 98.2345 103.466 97.724 105.375 96.5651C109.29 94.1884 113.931 91.4473 114.825 86.5339C114.203 85.8776 114.211 85.2717 114.849 84.7161C115.132 84.3786 115.358 84.008 115.524 83.6038C115.802 82.8315 115.914 81.8646 116.063 81.0458C116.504 78.6262 115.397 76.3605 116.431 73.9924C110.398 78.5639 104.598 83.7279 98.871 88.6768C93.7338 93.116 88.3733 98.9288 86.4854 105.553C86.2438 106.401 85.8418 107.364 85.8858 108.26C85.9716 110.018 86.1472 109.639 87.5638 110.204C88.9807 110.77 91.0439 110.721 92.5675 110.781C93.4359 110.815 97.3146 109.895 96.5435 111.801C96.099 112.9 93.4102 112.859 92.4474 112.96C90.0311 113.215 88.7208 112.953 89.8656 115.572C90.3786 116.746 91.4183 117.542 92.2337 118.45C94.5035 120.978 95.7362 124.855 97.5216 127.824C99.5556 131.207 101.792 134.425 104.167 137.575C105.148 138.875 106.458 141.319 107.817 142.246C109.086 143.113 107.593 143.041 109.701 142.689C110.62 142.536 111.452 141.938 112.331 141.724C117.586 140.444 122.988 139.001 128.422 137.421C135.374 135.4 142.668 133.676 149.3 130.765C155.241 128.157 161.138 125.052 167.142 122.411C168.895 121.64 170.646 121.129 172.009 119.71C173.654 117.998 175.015 115.756 176.532 113.915C179.112 110.784 181.49 107.6 184.267 104.633C186.334 102.425 189.997 98.321 192.914 97.4395C198.455 95.7657 195.489 104.206 194.772 106.339C196.075 106.635 196.76 104.964 198.289 105.445C200.119 106.02 200.309 108.454 200.538 109.98C200.598 110.386 200.048 111.146 200.215 111.508C200.272 111.632 201.467 112.338 201.697 112.665C202.534 113.855 202.369 115.301 202.052 116.583C200.412 123.226 194.583 128.076 190.297 132.976C192.214 132.613 193.636 131.521 195.447 130.979C197.146 130.47 198.854 130.497 200.567 130.351C202.36 130.199 204.082 129.527 205.917 129.494C207.842 129.458 209.685 130.006 211.594 130.223Z" fill="#310058"/>
<path fill-rule="evenodd" clip-rule="evenodd" d="M8.85095 70.4747C7.79383 71.1656 7.49586 71.8435 7.45936 73.4376C7.44474 74.0912 7.48982 76.5302 8.40353 76.4381C9.26097 76.352 8.85095 71.3133 8.85095 70.4747ZM3.39018 74.447C3.88275 69.3381 5.75186 64.1435 10.1488 60.9602C11.2362 60.1731 12.4663 60.201 13.6581 59.7043C14.3743 59.406 15.5059 58.0189 16.3191 58.183C19.3123 58.7885 15.8542 62.7657 15.3478 63.812C13.7784 67.0535 13.8844 69.9015 13.9313 73.3984C13.967 76.0559 14.5192 80.5361 13.1794 82.9416C11.7512 85.5029 8.65355 83.8395 6.92446 82.3237C4.74224 80.4097 3.09411 77.3621 3.39018 74.447Z" fill="#310058"/>
<path fill-rule="evenodd" clip-rule="evenodd" d="M55.936 89.5446C55.936 92.3952 58.2497 90.4652 58.1673 88.4375C58.0461 85.4522 55.8278 87.2905 55.936 89.5446ZM68.2369 73.7844C65.7047 76.0619 63.7512 77.3398 63.2631 80.8419C62.8936 83.4946 63.2608 86.1219 63.2765 88.794C63.303 93.273 59.686 97.9818 55.7939 92.8475C52.9548 89.1027 53.9731 83.2142 56.2883 79.4503C57.5032 77.4759 59.2374 75.5224 61.2409 74.2918C62.7478 73.3656 66.9867 71.5433 68.2369 73.7844Z" fill="#310058"/>
<path fill-rule="evenodd" clip-rule="evenodd" d="M32.8699 142.814C32.5764 143.508 31.887 146.344 33.2935 145.703C34.5348 145.136 33.7305 143.256 32.8699 142.814ZM25.4395 134.057C25.2225 132.991 25.3109 126.305 27.1525 126.807C28.5989 127.2 28.8379 130.622 29.4271 131.813C31.6215 136.248 36.658 139.01 38.3949 143.588C40.3335 148.7 34.4722 148.859 31.362 146.789C27.6794 144.338 25.5487 138.335 25.4395 134.057Z" fill="#310058"/>
<path fill-rule="evenodd" clip-rule="evenodd" d="M20.925 106.644C21.7241 105.565 21.805 104.989 21.3493 104.034C20.7669 104.667 20.8702 105.573 20.925 106.644ZM21.5033 111.471C17.3368 111.938 17.1282 104.26 17.8416 101.623C18.4099 99.5236 19.6315 97.2676 20.8892 95.5568C21.1431 95.2116 23.552 92.1096 24.024 92.1021C25.8362 92.0734 25.3384 94.1209 25.1427 94.8831C24.527 97.2844 24.2832 99.2913 24.4487 101.954C24.6266 104.802 25.9757 111.566 21.5033 111.471Z" fill="#310058"/>
<path fill-rule="evenodd" clip-rule="evenodd" d="M210.678 44.9762C204.72 49.9724 199.065 55.3814 192.587 59.7516C189.417 61.8905 186.103 63.7825 182.94 65.956C181.329 67.0631 179.685 68.0542 177.898 68.8678C176.319 69.5867 175.287 69.6803 176.597 67.974C177.473 66.8341 179.435 66.0399 180.628 65.2296C182.463 63.9816 184.197 62.5974 186.127 61.4904C189.531 59.5376 192.914 57.961 196.052 55.5664C198.837 53.4413 201.71 51.3666 204.368 49.1081C205.508 48.1397 209.287 43.6935 210.678 44.9762Z" fill="#310058"/>
<path fill-rule="evenodd" clip-rule="evenodd" d="M210.798 63.017C213.478 65.3087 206.774 71.5873 205.246 73.0102C203.634 74.511 201.858 75.8497 200.105 77.179C199.488 77.6473 196.121 80.7807 195.266 80.5278C193.58 80.0286 195.794 77.9956 196.369 77.4657C198.231 75.749 200.133 74.083 201.953 72.32C203.595 70.7315 205.373 69.2605 206.961 67.6206C208.247 66.292 209.327 64.0409 210.798 63.017Z" fill="#310058"/>
<path fill-rule="evenodd" clip-rule="evenodd" d="M12.3049 155.401C11.6054 153.78 10.3526 155.579 10.9877 156.389C11.5884 157.155 12.2154 155.712 12.3049 155.401ZM8.20319 152.2C8.57819 149.816 9.44484 148.492 11.6808 150.526C13.2173 151.924 16.3074 155.9 16.0142 158.067C15.6293 160.909 12.4985 160.103 10.8756 158.616C9.21205 157.093 8.47766 154.313 8.20319 152.2Z" fill="#310058"/>
<path fill-rule="evenodd" clip-rule="evenodd" d="M13.103 199.109C10.3639 198.901 8.02707 196.798 6.86387 194.334C5.88517 192.261 4.95882 188.92 8.3972 190.01C10.6381 190.72 19.2769 199.443 13.103 199.109Z" fill="#310058"/>
<path fill-rule="evenodd" clip-rule="evenodd" d="M46.2985 185.598C44.1816 186.08 42.0879 184.686 40.7862 183.114C39.9763 182.135 38.0914 178.702 39.0411 177.29C40.3648 175.319 42.3635 179.28 43.0529 180.064C44.1343 181.292 47.6707 183.64 46.2985 185.598Z" fill="#310058"/>
<path fill-rule="evenodd" clip-rule="evenodd" d="M48.205 132C46.5457 131.23 45.0053 130.303 44.3379 128.464C43.9135 127.293 43.557 123.781 45.4416 123.797C47.6214 123.816 52.6128 131.648 48.205 132Z" fill="#310058"/>
<path fill-rule="evenodd" clip-rule="evenodd" d="M36.5719 95.4588C38.7935 95.4186 39.3196 96.6439 39.6284 98.4042C39.8383 99.599 40.8559 103.655 39.7992 104.486C38.289 105.673 35.8865 102.953 35.401 101.885C34.4002 99.6862 35.784 97.5239 36.5719 95.4588Z" fill="#310058"/>
<path fill-rule="evenodd" clip-rule="evenodd" d="M74.7471 217.069C75.8288 217.561 78.2898 218.652 77.3494 220.346C76.3661 222.117 73.5431 220.396 72.4885 219.622C72.0471 219.298 69.2422 217.177 69.3597 216.466C69.6069 214.954 73.4733 216.926 74.7471 217.069Z" fill="#310058"/>
<path fill-rule="evenodd" clip-rule="evenodd" d="M3.47767 106.461C4.21687 108.312 5.04896 114.671 1.15637 111.237C-0.0315147 110.189 -0.210797 108.88 0.198478 107.441C0.790278 105.356 1.65152 105.769 3.47767 106.461Z" fill="#310058"/>
<path fill-rule="evenodd" clip-rule="evenodd" d="M209.76 82.7797C208.898 81.0186 211.026 79.8828 212.163 78.7477C212.906 78.0064 216.028 73.9857 217.051 74.2127C219.157 74.68 210.795 81.9944 209.76 82.7797Z" fill="#310058"/>
<path fill-rule="evenodd" clip-rule="evenodd" d="M36.5439 210.337C38.575 210.011 39.0489 212.267 40.3573 213.251C40.9185 213.673 42.8448 214.043 42.4574 214.939C41.4395 217.29 36.4443 211.918 36.5439 210.337Z" fill="#310058"/>
<path fill-rule="evenodd" clip-rule="evenodd" d="M53.6949 157.055C55.091 156.47 59.1204 159.609 57.9633 160.965C56.2339 162.994 53.7934 158.165 53.6949 157.055Z" fill="#310058"/>
<path fill-rule="evenodd" clip-rule="evenodd" d="M83.1216 202.469C82.104 202.57 77.8096 201.221 79.4006 199.413C80.5178 198.144 83.4867 201.32 83.1216 202.469Z" fill="#310058"/>
<path fill-rule="evenodd" clip-rule="evenodd" d="M31.6949 193.797C30.6848 194.201 27.041 193.37 28.1865 191.787C29.2779 190.281 31.6964 192.546 31.6949 193.797Z" fill="#310058"/>
<path fill-rule="evenodd" clip-rule="evenodd" d="M61.5255 200.624C62.7067 200.501 63.5599 201.214 63.7627 202.419C62.2854 202.63 61.8297 202.279 61.5255 200.624Z" fill="#310058"/>
<path fill-rule="evenodd" clip-rule="evenodd" d="M215.153 25.5389C215.652 25.5412 216.15 25.5438 216.644 25.546C216.144 25.5434 215.649 25.5412 215.153 25.5389Z" fill="#310058"/>
<path fill-rule="evenodd" clip-rule="evenodd" d="M207.322 129.388C206.576 129.389 205.83 129.391 205.085 129.391C205.831 129.39 206.577 129.389 207.322 129.388Z" fill="#310058"/>
<path fill-rule="evenodd" clip-rule="evenodd" d="M105.577 7.83057C105.543 8.57719 105.509 9.32381 105.474 10.0679C105.507 9.3206 105.542 8.57525 105.577 7.83057Z" fill="#310058"/>
<path fill-rule="evenodd" clip-rule="evenodd" d="M336.64 134.61C336.878 135.44 336.529 135.577 335.593 135.023C335.942 134.885 336.291 134.748 336.64 134.61Z" fill="#310058"/>
<path fill-rule="evenodd" clip-rule="evenodd" d="M315.458 199.675C315.832 199.677 316.206 199.679 316.576 199.682C316.201 199.679 315.829 199.677 315.458 199.675Z" fill="#310058"/>
<path fill-rule="evenodd" clip-rule="evenodd" d="M244.61 139.654C243.985 140.13 243.363 140.197 242.746 139.628C243.367 139.637 243.989 139.645 244.61 139.654Z" fill="#310058"/>
<path fill-rule="evenodd" clip-rule="evenodd" d="M230.651 76.0679C230.635 76.6902 230.619 77.3122 230.603 77.9323C230.619 77.3092 230.635 76.6883 230.651 76.0679Z" fill="#310058"/>
<path fill-rule="evenodd" clip-rule="evenodd" d="M262.881 18.5321C262.26 18.5317 261.638 18.531 261.017 18.5302C261.639 18.2976 262.261 18.374 262.881 18.5321Z" fill="#310058"/>
<path fill-rule="evenodd" clip-rule="evenodd" d="M80.5424 10.9452C79.9212 10.9817 79.2992 11.0183 78.678 11.0548C79.2992 11.0183 79.9212 10.9817 80.5424 10.9452Z" fill="#310058"/>
<path fill-rule="evenodd" clip-rule="evenodd" d="M95.8305 11.0634C95.3335 11.0213 94.8357 10.9788 94.339 10.9366C94.8357 10.9788 95.3327 11.0213 95.8305 11.0634Z" fill="#310058"/>
<path fill-rule="evenodd" clip-rule="evenodd" d="M104.034 11.6544C103.537 11.8397 103.04 11.9494 102.542 11.657C103.04 11.6563 103.537 11.6552 104.034 11.6544Z" fill="#310058"/>
<path fill-rule="evenodd" clip-rule="evenodd" d="M59.661 12.6754C59.0391 12.8018 58.4179 12.9282 57.7966 13.0535C58.4186 12.9282 59.0398 12.8018 59.661 12.6754Z" fill="#310058"/>
<path fill-rule="evenodd" clip-rule="evenodd" d="M231.025 164.441C231.008 164.814 230.991 165.188 230.975 165.559C230.992 165.185 231.009 164.813 231.025 164.441Z" fill="#310058"/>
<path fill-rule="evenodd" clip-rule="evenodd" d="M25.532 134.237C25.5394 134.486 25.5465 134.735 25.5532 134.983C25.545 134.733 25.539 134.485 25.532 134.237Z" fill="#310058"/>
<path fill-rule="evenodd" clip-rule="evenodd" d="M338.949 132.899L337.085 132.909C337.705 132.446 338.327 132.505 338.949 132.899Z" fill="#310058"/>
<path fill-rule="evenodd" clip-rule="evenodd" d="M211.424 130.259C210.926 130.177 210.429 130.095 209.932 130.013C210.429 130.095 210.927 130.177 211.424 130.259Z" fill="#310058"/>
<path fill-rule="evenodd" clip-rule="evenodd" d="M74.9492 217.012C74.3276 216.891 73.7064 216.77 73.0848 216.649L74.9492 217.012Z" fill="#310058"/>
<path fill-rule="evenodd" clip-rule="evenodd" d="M200.441 110C200.429 109.627 200.418 109.253 200.407 108.881C200.418 109.255 200.429 109.627 200.441 110Z" fill="#310058"/>
<path fill-rule="evenodd" clip-rule="evenodd" d="M82.4068 11.0689C82.0339 11.023 81.6607 10.9771 81.2882 10.9313C81.6607 10.9771 82.0339 11.023 82.4068 11.0689Z" fill="#310058"/>
<path fill-rule="evenodd" clip-rule="evenodd" d="M143.559 1.84749C143.186 1.73451 142.813 1.62153 142.441 1.50854C142.814 1.62153 143.186 1.73451 143.559 1.84749Z" fill="#310058"/>
<path fill-rule="evenodd" clip-rule="evenodd" d="M187.932 253.35C188.182 253.365 188.432 253.381 188.678 253.396C188.427 253.38 188.179 253.365 187.932 253.35Z" fill="#310058"/>
<path fill-rule="evenodd" clip-rule="evenodd" d="M16.7797 53.1207C17.1541 53.1304 17.5284 53.1405 17.8983 53.1506C17.5221 53.1405 17.1509 53.1304 16.7797 53.1207Z" fill="#310058"/>
<path fill-rule="evenodd" clip-rule="evenodd" d="M266.983 18.8961C266.361 18.8525 265.74 18.8089 265.119 18.7649C265.741 18.8089 266.361 18.8525 266.983 18.8961Z" fill="#310058"/>
<path fill-rule="evenodd" clip-rule="evenodd" d="M70.4746 17.1503C69.6024 17.1518 68.7314 17.1532 67.8644 17.1547C68.7385 17.1532 69.6065 17.1518 70.4746 17.1503Z" fill="#310058"/>
<path fill-rule="evenodd" clip-rule="evenodd" d="M246.643 93.9662C246.654 94.5885 246.667 95.2109 246.679 95.8306C246.668 95.2079 246.657 94.5867 246.643 93.9662Z" fill="#310058"/>
<path fill-rule="evenodd" clip-rule="evenodd" d="M200.983 227.47C200.484 227.462 199.986 227.454 199.492 227.446C199.991 227.453 200.487 227.461 200.983 227.47Z" fill="#310058"/>
<path fill-rule="evenodd" clip-rule="evenodd" d="M253.932 29.9029C254.678 29.8201 255.423 29.7373 256.17 29.6545C255.454 30.2877 254.681 29.8663 253.932 29.9029Z" fill="#310058"/>
<path fill-rule="evenodd" clip-rule="evenodd" d="M196.881 227.665C196.507 227.651 196.134 227.637 195.763 227.623C196.138 227.637 196.51 227.651 196.881 227.665Z" fill="#310058"/>
<path fill-rule="evenodd" clip-rule="evenodd" d="M183.989 234.169C184.007 234.792 184.026 235.414 184.045 236.034C184.027 235.41 184.008 234.79 183.989 234.169Z" fill="#310058"/>
<path fill-rule="evenodd" clip-rule="evenodd" d="M240.881 52.7994C241.379 52.7531 241.876 52.7069 242.373 52.661C241.919 53.0108 241.386 52.8061 240.881 52.7994Z" fill="#310058"/>
<path fill-rule="evenodd" clip-rule="evenodd" d="M77.9323 151.999C78.4293 152.091 78.9271 152.181 79.4238 152.272C78.9267 152.181 78.4293 152.091 77.9323 151.999Z" fill="#310058"/>
<path fill-rule="evenodd" clip-rule="evenodd" d="M155.492 53.8829C156.112 53.3541 156.734 53.4115 157.356 53.8769C156.734 53.8784 156.113 53.8806 155.492 53.8829Z" fill="#310058"/>
<path fill-rule="evenodd" clip-rule="evenodd" d="M132.159 72.7118C132.177 72.4631 132.195 72.2144 132.214 71.9661C132.197 72.2151 132.178 72.4635 132.159 72.7118Z" fill="#310058"/>
<path fill-rule="evenodd" clip-rule="evenodd" d="M240.687 65.6272C240.692 66.1254 240.697 66.6232 240.703 67.1187C240.698 66.6194 240.693 66.1235 240.687 65.6272Z" fill="#310058"/>
<path fill-rule="evenodd" clip-rule="evenodd" d="M76.1737 143.571C76.9918 143.848 78.6374 144.686 79.5908 144.575C80.3541 144.486 80.9832 143.558 81.7192 143.559C83.7011 143.562 83.3334 145.853 82.3759 147.083C79.7862 150.41 73.9995 146.802 76.1737 143.571Z" fill="#310058"/>
<path fill-rule="evenodd" clip-rule="evenodd" d="M84.2626 131.627C86.9653 132.325 85.6192 138.27 83.3472 138.678C80.6722 139.16 80.2061 134.326 80.7345 132.579C82.1111 133.397 81.2587 136.315 82.9937 135.509C84.0971 134.995 83.9293 132.621 84.2626 131.627Z" fill="#310058"/>
</svg>
