
<svg width="469" height="441" viewBox="0 0 469 441" fill="none" xmlns="http://www.w3.org/2000/svg">
<path fill-rule="evenodd" clip-rule="evenodd" d="M243.104 27.1973C241.039 32.6629 238.975 38.1293 236.91 43.595C235.586 47.0976 234.264 50.5995 232.94 54.1021C232.471 55.3439 232.21 56.6178 231.302 57.4799C229.163 59.5098 225.323 60.8017 222.752 62.2296C221.03 63.1865 219.307 64.1434 217.585 65.1003C216.697 65.5941 214.727 66.214 214.105 67.0334C213.42 67.9363 213.744 69.5945 213.744 70.843V81.6223V101.933C222.641 100.821 231.538 99.7091 240.435 98.5967C228.582 112.274 216.729 125.951 204.875 139.628C201.954 142.999 198.407 146.243 196.23 150.165C191.598 158.512 187.07 166.92 182.491 175.297C178.228 183.095 173.966 190.892 169.703 198.69L208.051 197.057C217.98 196.635 228.179 197.27 237.745 194.456C245.631 192.137 253.517 189.818 261.403 187.499C262.452 187.19 265.719 186.841 266.462 185.997C267.158 185.206 267.143 182.218 267.34 181.207C271.062 162.076 275.801 140.993 286.664 124.525C294.453 112.721 304.962 102.385 314.587 92.0907C318.344 88.073 322.166 84.1033 325.79 79.9634C326.718 78.9031 328.059 77.7 328.673 76.4121C329.069 75.58 329.623 73.9946 329.377 73.2559C329.27 72.9356 326.793 71.7865 326.438 71.5583C323.929 69.9455 321.441 68.2986 318.948 66.6598C311.943 62.0542 304.945 57.4372 297.899 52.893C292.407 49.3497 286.93 45.5929 281.136 42.548C275.131 39.3918 268.518 37.1704 262.222 34.6767C255.86 32.1564 249.486 29.665 243.104 27.1973Z" fill="#FF4878"/>
<path fill-rule="evenodd" clip-rule="evenodd" d="M459.033 319.191C455.978 322.069 450.415 325.933 446.017 324.176C443.809 323.294 441.922 321.357 439.91 320.108C437.547 318.64 435.325 317.171 433.321 315.214C429.323 311.31 426.296 305.605 421.575 302.548C419.988 301.52 416.89 301.3 415.789 299.659C415.296 298.923 415.25 297.807 415.341 296.956C415.538 295.124 416.528 295.232 414.874 293.887H417.443C417.492 292.894 416.502 292.812 415.764 292.94C416.107 291.368 416.457 285.213 413.59 288.003C411.105 290.42 412.348 294.431 410.588 297.05C409.241 299.055 405.666 297.431 405.183 295.225C404.967 294.234 406.058 292.687 406.188 291.715C406.474 289.561 405.512 287.698 404.115 286.066C401.049 288.109 402.787 292.336 401.04 295.02C399.459 297.448 395.938 296.315 393.531 295.888C390.646 295.375 387.384 295.894 384.623 295.213C380.455 294.184 382.011 289.29 381.599 286.131C381.157 282.747 377.737 278.051 378.764 274.637C379.868 270.971 386.32 270.179 389.404 269.29C396.453 267.257 406.507 266.866 411.747 261.174C415.915 265.822 419.267 271.144 423.639 275.619C428.36 280.452 433.404 284.914 437.937 289.942C442.654 295.175 447.524 300.307 452.07 305.692C454.054 308.04 455.796 310.572 457.848 312.864C459.672 314.902 461.595 316.777 459.033 319.191ZM249.53 228.792C251.696 227.64 251.971 228.362 251.971 230.734C251.347 229.595 250.729 229.29 249.53 228.792ZM231.166 274.905V270.724C233.254 270.669 231.97 274.246 231.166 274.905ZM230.655 281.132C230.655 279.28 230.605 277.517 231.139 275.716C231.42 277.679 231.955 279.378 230.655 281.132ZM239.633 408.332C241.551 408.511 244.506 407.19 246.119 408.695C247.776 410.241 247.643 414.741 248.036 416.829C248.684 420.281 249.259 423.745 249.805 427.213C250.164 429.487 250.607 431.797 248.036 432.667C244.236 433.952 238.807 432.118 234.847 431.951C227.023 431.622 219.204 431.164 211.374 431.005C203.785 430.852 196.178 430.973 188.624 431.763C185.211 432.119 181.874 432.749 178.496 433.319C176.716 433.62 171.946 434.878 170.338 433.377C167.312 430.552 172.342 423.955 174.505 422.092C178.52 418.635 184.23 416.142 189.265 414.641C191.956 413.838 196.441 411.585 198.56 414.105C200.187 416.038 200.122 418.618 202.452 420.083C207.851 423.477 204.692 413.742 201.318 412.544C203.584 407.241 207.902 414.728 209.693 416.526C210.33 417.166 212.403 419.276 213.303 418.215C213.977 417.421 212.631 414.575 212.381 413.801C212.002 412.626 211.043 410.837 211.319 409.562C211.818 407.255 215.054 406.626 216.993 406.434C219.999 406.136 222.948 407.089 225.92 407.407C230.477 407.896 235.07 407.903 239.633 408.332ZM209.45 190.989C203.516 191.462 197.545 190.554 191.625 191.297C186.023 192 180.745 194.057 175.465 195.946C183.315 177.535 193.471 160.774 205.85 145.074C212.014 137.254 218.644 129.488 225.305 122.087C228.405 118.644 231.61 115.315 234.811 111.968C237.665 108.983 239.711 103.913 243.136 101.684C246.06 99.7805 251.171 101.138 254.411 101.256C258.074 101.389 262.531 101.722 266.103 100.503C268.691 99.6197 269.403 97.2622 266.163 97.1841C262.342 97.0913 258.583 97.4897 254.711 97.1314C244.68 96.2045 235.01 94.6811 224.897 95.5452C222.581 95.7427 219.531 96.7297 217.258 96.4334C215.623 96.2192 216.698 97.0413 215.561 95.7294C215.126 95.2276 214.602 94.0478 214.473 93.3812C213.749 89.6371 215.805 84.2868 216.297 80.5173C216.752 77.0287 216.349 73.1945 217.2 69.7973C217.976 66.7058 220.339 66.2934 223.25 65.9631C231.213 65.0589 239.339 64.5778 247.338 63.8965C265.592 62.3417 284.426 59.9962 302.556 63.8385C309.103 65.2258 317.086 67.3711 322.934 70.8063C324.763 71.8799 326.608 73.1444 325.943 75.3692C325.253 77.6786 321.869 80.1182 320.194 81.6396C307.81 92.8821 295.849 104.349 287.149 118.775C276.055 137.17 269.688 157.037 265.953 178.116C265.15 182.651 264.403 185.024 259.738 186.329C254.729 187.731 249.895 188.642 244.701 189.069C232.961 190.033 221.185 190.053 209.45 190.989ZM213.427 69.1694C212.527 75.8656 211.31 82.5472 211.189 89.2961C211.144 91.8451 210.902 93.1223 208.192 93.6908C204.996 94.3608 201.747 94.8599 198.537 95.5552C183.043 98.913 167.843 103.037 152.684 107.678C137.953 112.191 123.463 117.267 108.401 120.609C101.921 122.047 94.3397 123.016 88.4382 126.2C82.0896 129.626 82.9251 135.242 82.3552 141.411C81.5938 149.653 79.1495 157.634 78.2901 165.873C77.879 169.81 77.5047 173.771 77.5668 177.732C77.6195 181.109 78.1033 184.843 75.8331 187.685C71.2789 181.597 69.1203 173.939 68.2228 166.477C67.7863 162.85 67.9592 159.193 67.8344 155.549C67.7336 152.615 67.799 147.948 65.8879 145.498C61.7334 140.173 56.3304 161.512 55.8166 163.791C54.9524 167.627 54.2398 171.494 53.379 175.331C52.9973 177.031 52.5075 183.212 50.2294 183.828C45.5083 185.105 46.5446 171.839 46.4699 169.819C46.3204 165.742 46.219 161.66 46.3144 157.579C46.3838 154.634 46.9537 151.438 46.6154 148.491C45.7846 141.256 41.7161 148.879 40.5724 151.572C37.6824 158.371 36.3752 165.648 33.7834 172.556C33.3524 173.705 32.3394 177.573 30.7346 177.645C28.949 177.725 28.963 173.73 28.8609 172.563C28.2683 165.797 26.2671 159.079 26.871 152.243C27.4809 145.341 29.9005 138.245 33.3244 132.241C40.5631 119.548 53.6352 112.26 66.1562 105.621C80.4855 98.0249 95.6135 92.0233 111.064 87.1341C129.647 81.254 148.727 76.4962 167.923 73.1104C177.688 71.3881 187.605 70.1563 197.471 69.1687C200.938 68.8218 204.406 68.6189 207.829 67.9589C209.121 67.7094 213.782 66.5236 213.427 69.1694ZM223.409 47.4993C218.513 47.538 213.512 45.1645 208.742 44.1835C203.063 43.0145 197.517 41.3229 191.849 40.1024C180.749 37.7129 169.642 35.3827 158.552 32.9404C153.737 31.8801 148.9 30.9573 144.104 29.8184C138.973 28.6 133.43 27.2414 128.178 28.5539C120.218 30.5438 116.856 39.2523 113.933 46.0486C111.869 50.8491 110.251 56.2 107.031 60.3772C105.885 61.8666 104.256 63.6429 102.177 63.1605C98.3153 62.265 98.9286 57.1549 99.4204 54.3303C100.133 50.2312 101.143 46.1801 101.951 42.0996C102.276 40.4528 104.8 29.6743 100.295 31.343C96.9521 32.5808 95.1838 40.7337 93.9186 43.6457C92.9784 45.8097 91.9821 47.9597 90.9272 50.0703C89.5192 52.8856 85.5021 62.2924 81.0546 61.0792C74.6901 59.343 80.7951 42.6108 81.8794 39.0841C82.4746 37.1483 88.944 22.4676 83.4836 23.6674C81.1581 24.1792 78.8926 28.4985 77.7069 30.2888C75.6043 33.4643 73.5083 36.6626 71.5291 39.9163C69.4933 43.2627 68.4536 47.0716 66.4344 50.3693C65.3721 52.1049 63.2041 54.4177 61.0875 52.8109C57.7877 50.3079 59.7435 41.6012 60.3214 38.3088C61.3964 32.1877 64.0669 25.9128 67.731 20.9088C73.2367 13.3898 83.6257 10.9602 92.3618 9.49955C103.638 7.6138 115.072 8.12961 126.395 9.24532C139.131 10.5005 151.672 11.8444 164.225 14.4108C176.876 16.9972 189.533 19.5629 201.99 22.9834C207.858 24.5949 213.81 26.0236 219.595 27.9153C225.744 29.9258 231.746 32.428 238.067 33.8766C235.844 39.4251 233.62 44.9736 231.396 50.5228C229.268 48.4175 226.364 47.4753 223.409 47.4993ZM332.392 62.7888C334.342 61.7225 336.496 61.2194 337.207 58.8625C337.836 56.7799 336.761 54.4204 336.248 52.4212C334.81 46.824 334.432 41.026 335.704 35.3627C336.919 37.2184 341.47 44.3564 344.238 40.035C345.908 37.4286 341.434 33.6791 340.128 31.8468C342.994 30.0787 347.086 25.3329 350.388 28.1949C352.522 30.0453 353.425 31.8267 356.301 32.7262C359.791 33.8186 363.078 33.5684 366.642 33.2667C369.138 33.0559 369.739 32.7229 370.714 34.6447C371.48 36.1554 371.875 38.0252 372.322 39.6473C373.203 42.8456 375.242 49.1475 372.827 52.1436C370.712 54.768 362.5 52.518 361.359 55.9058C360.738 57.7535 363.706 57.8195 364.84 58.7337C366.245 59.8654 367.406 61.6664 368.17 63.2753C368.735 64.465 369.594 66.4309 368.632 67.6473C367.303 69.3302 364.839 68.0537 363.768 66.8306C362.345 65.2057 361.883 62.9843 360.696 61.2147C358.518 57.9677 358.387 60.5507 357.794 62.8822C357.178 65.3045 355.721 65.1377 353.489 65.4486C349.573 65.9951 345.615 66.7658 341.803 67.8155C339.848 68.3533 337.955 69.0386 336.094 69.8394C334.895 70.3545 332.816 71.9153 331.515 71.93C329.104 71.9573 327.433 67.9249 326.188 66.2427C328.254 65.089 330.315 63.9245 332.392 62.7888ZM461.865 309.7C455.843 302.472 450.628 294.619 444.687 287.328C438.827 280.137 432.048 273.849 425.473 267.335C422.369 264.261 419.396 260.889 415.97 258.165C413.414 256.132 411.448 256.101 408.374 257.001C399.638 259.559 390.745 262.639 382.478 266.457C374.781 270.012 367.77 274.577 359.422 276.559C350.902 278.583 342.042 279.233 333.309 278.731C324.352 278.217 315.903 276.353 307.385 273.614C299.317 271.019 290.905 268.754 284.006 263.612C276.772 258.222 271.184 250.468 266.006 243.176C263.384 239.485 260.781 235.608 259.015 231.424C257.482 227.793 256.481 223.508 253.73 220.549C253.056 221.505 252.216 222.325 251.873 223.448C251.717 223.958 252.637 223.942 252.542 224.348C252.364 225.112 251.347 225.892 250.756 226.307C248.632 227.802 248.62 226.612 249.177 229.407C249.501 231.037 248.887 234.713 246.23 233.512C247.208 234.683 245.654 236.161 245.146 237.126C244.797 236.725 244.363 236.585 243.844 236.706C244.815 238.641 244.241 238.693 243.3 240.23C243.128 240.51 242.519 241.98 242.606 241.856C241.644 243.227 240.532 243.572 239.971 245.279C239.51 246.681 239.628 248.222 239.114 249.622C238.493 248.763 237.872 247.905 237.25 247.047C237.377 247.722 237.631 248.721 237.926 249.334C238.111 249.717 238.906 250.611 238.896 250.82C238.852 251.601 237.878 251.413 237.601 252.087C237.079 253.35 237.833 253.536 237.549 254.768C237.223 256.183 236.349 255.617 235.933 256.823C235.854 257.052 236.468 257.953 236.371 258.446C236.234 259.144 235.601 259.535 235.378 260.155C234.809 261.734 235.016 262.89 234.227 264.404C233.921 264.991 233.476 265.382 233.261 266.049C233.072 266.637 233.478 267.887 233.114 268.412C231.353 270.947 231.601 266.581 231.734 265.498C232.855 256.405 236.45 247.02 239.739 238.521C241.374 234.298 242.965 229.943 245.015 225.899C245.84 224.27 246.792 222.589 248.155 221.343C249.879 219.767 252.326 219.137 253.887 217.376C253.641 217.654 255.58 215.819 255.27 216.422C255.547 215.883 255.063 215.153 255.235 214.631C255.449 213.983 255.854 213.847 256.305 213.28C257.116 212.262 258.079 211.754 256.806 210.457C258.696 210.04 259.599 209.426 259.977 207.402C260.252 205.922 259.696 206.018 260.667 205.032C261.642 204.04 262.136 204.814 262.751 203.097C263.485 201.042 263.973 198.249 264.414 196.099C264.798 194.221 263.865 191.461 265.447 190.136C267.451 188.457 269.244 189.168 268.885 185.793C268.535 182.503 269.557 180.509 270.585 177.396C272.635 171.18 273.428 164.617 275.226 158.327C279.063 144.904 285.842 132.802 293.131 120.986C299.867 110.068 309.284 100.766 318.377 91.8078C320.867 89.3541 323.329 86.8652 325.564 84.1753C327.49 81.8592 328.37 78.7056 330.221 76.5069C331.345 75.1717 333.438 74.6004 335.008 73.8925C337.627 72.7114 340.747 71.1706 343.702 71.4095C342.528 75.3685 342.145 79.9948 345.611 82.9635C349.815 86.5649 353.626 82.8234 357.481 80.7702C364.506 77.0274 374.553 80.4632 380.679 74.8533C382.138 73.5174 382.545 71.3828 384.061 70.135C385.174 69.2201 386.758 68.9879 388.011 68.3059C391.818 66.234 393.665 62.4412 392.183 58.2513C390.828 54.4211 388.724 53.0925 393.409 51.1514C397.213 49.5766 398.659 47.2037 396.937 42.9791C395.296 38.9514 392.288 38.4876 389.443 35.8518C386.687 33.2988 389.853 30.3276 391.918 28.4111C394.58 25.9388 395.089 23.7107 392.003 21.1397C388.77 18.4479 384.155 18.5419 380.388 19.8732C376.127 21.3779 373.319 23.8796 371.516 27.9333C369.68 32.0603 365.128 30.9086 361.442 29.7584C357.917 28.6587 356.999 26.2858 354.685 23.7308C352.11 20.8888 346.863 23.319 343.827 24.6176C336.348 27.8139 328.916 32.8584 328.619 41.794C328.442 47.1223 330.696 51.6511 331.867 56.6525C332.939 61.226 325.592 60.8657 324.319 65.2898C310.746 58.1045 295.63 55.9058 280.457 55.4166C264.331 54.8962 247.972 54.4791 231.983 57.0228C235.695 50.5568 237.655 43.4662 240.884 36.8234C241.813 34.9109 242.214 35.0744 244.265 35.6523C248.205 36.762 252.116 38.0038 256.048 39.1469C270.414 43.3228 284.497 48.3541 298.387 53.8645C299.737 54.4004 302.751 55.8877 303.934 54.2702C305.299 52.4052 302.141 50.1057 300.863 49.1675C295.269 45.0644 288.338 42.5741 282.075 39.6954C268.38 33.4035 253.215 30.417 238.926 25.744C208.078 15.6539 176.164 7.99082 144.107 2.92945C136.283 1.69431 128.377 1.51347 120.519 0.59662C113.559 -0.215467 106.587 -0.196783 99.6279 0.641996C86.7746 2.1921 71.8735 5.53654 64.6141 17.3021C58.0606 27.9253 53.6859 39.8689 55.3581 52.4699C55.8606 56.2548 57.4634 60.7369 62.1338 59.7613C65.3734 59.0847 67.0937 56.3322 68.5978 53.6457C70.8705 49.5872 73.1153 45.5288 75.5782 41.5791C76.4917 47.5013 73.172 53.3247 73.6938 59.3576C74.0488 63.4514 76.3109 69.9194 81.6259 68.7604C88.9106 67.1722 91.9087 55.7917 95.4113 50.3319C95.5888 54.5372 94.1148 58.6817 94.5659 62.8963C95.0109 67.0595 98.264 70.9898 102.833 70.4192C107.142 69.8814 109.943 65.2645 111.773 61.7886C114.32 56.9514 116.15 51.7653 118.638 46.8961C120.969 42.3318 123.731 36.8981 129.297 36.0407C134.265 35.2746 139.959 37.0476 144.866 37.7789C158.478 39.8075 171.816 43.2614 185.279 46.0519C199.714 49.0434 214.491 50.8604 228.481 55.6876C223.562 62.3831 210.688 60.9364 203.36 61.6551C192.286 62.7414 181.069 63.5589 170.058 65.1617C159.183 66.7445 148.535 69.5544 137.744 71.5943C127.01 73.6236 116.295 75.6561 105.908 79.1166C86.6245 85.5419 67.019 93.6735 50.0285 104.885C42.1232 110.101 35.1007 116.064 30.2175 124.298C25.3029 132.584 22.9414 141.953 22.0405 151.484C21.48 157.419 22.4322 162.555 23.582 168.331C24.4147 172.513 24.6843 179.514 28.0374 182.577C34.4374 188.421 39.751 164.714 40.9327 161.851C41.7835 166.543 40.3922 192.978 50.6611 190.828C55.244 189.869 56.2837 183.579 57.0437 179.79C58.4303 172.883 59.6721 165.837 62.0437 159.185C63.5658 168.148 64.2003 177.486 67.4794 186.047C69.6574 191.732 75.8718 201.82 80.2045 192.087C83.4542 184.787 82.3392 176.41 82.7289 168.66C83.1606 160.072 85.6262 151.788 86.499 143.284C86.8373 139.99 86.5311 136.277 89.8415 134.479C92.6834 132.937 96.8393 132.434 99.9422 131.573C109.133 129.021 118.383 126.675 127.53 123.968C136.682 121.259 145.706 118.094 154.735 115.005C163.37 112.051 172.187 110.372 180.927 107.842C185.897 106.403 190.806 104.899 195.845 103.697C198.189 103.139 200.563 102.704 202.902 102.125C204.637 101.697 206.921 100.08 208.704 100.109C210.539 100.139 211.229 101.692 213.333 101.814C215.599 101.945 217.902 101.445 220.155 101.273C225.644 100.851 231.478 100.171 236.953 100.932C233.662 104.835 229.217 107.534 225.322 110.767C220.829 114.497 216.481 118.524 212.643 122.928C204.922 131.79 197.624 141.156 190.843 150.756C184.155 160.227 178.77 170.591 174.088 181.179C171.756 186.456 169.491 191.847 167.879 197.393C167.217 199.671 166.677 201.958 165.482 204.03C164.385 205.93 162.841 207.569 164.136 209.863C165.029 209.305 165.83 208.611 166.637 207.94C165.705 214.507 163.693 220.86 162.658 227.406C161.639 233.856 161.68 240.49 161.746 247.004C161.885 260.646 162.899 273.979 165.667 287.36C168.465 300.891 172.06 314.318 176.594 327.371C180.958 339.939 185.337 353.118 191.429 364.963C197.935 377.615 205.675 390.917 215.092 401.626C208.941 404.146 201.112 403.675 194.598 404.69C187.789 405.751 181.899 407.753 176.096 411.521C170.225 415.333 167.038 420.242 166.227 427.194C165.651 432.142 163.938 438.992 170.429 440.292C175.098 441.227 180.317 439.691 184.996 439.312C193.179 438.648 201.374 438.234 209.577 437.876C217.757 437.519 225.939 437.205 234.122 436.951C237.971 436.832 241.822 436.772 245.669 436.634C247.394 436.572 248.439 436.546 249.985 437.044C251.208 437.439 251.118 438.257 252.48 437.245C254.675 435.612 254.223 430.464 254.162 428.201C254.069 424.707 253.738 421.174 253.056 417.747C252.652 415.71 247.743 402.583 251.56 402.03C247.126 397.158 245.355 390.2 243.363 384.093C240.868 376.442 238.677 368.812 236.957 360.943C233.284 344.133 231.66 327.14 231.66 309.941C248.688 320.437 266.704 326.122 286.76 326.756C306.7 327.386 328.606 325.749 347.541 319.115C356.309 316.043 364.163 312.009 371.68 306.574C374.375 304.626 377.262 300.214 380.798 300.289C385.019 300.38 389.745 301.978 393.936 302.661C401.952 303.967 412.414 304.705 419.2 309.663C422.886 312.356 425.528 316.125 428.817 319.228C431.32 321.589 434.629 322.871 437.112 325.232C439.792 327.779 438.728 331.107 443.171 331.313C446.97 331.488 451.134 329.96 454.41 328.167C460.945 324.588 467.905 316.949 461.865 309.7Z" fill="#310058"/>
<path fill-rule="evenodd" clip-rule="evenodd" d="M399.049 139.483C408.613 146.277 419.583 150.918 429.578 157.036C432.079 158.568 439.873 161.747 439.798 164.588C439.754 166.249 437.411 168.331 436.386 169.483C434.629 171.454 432.976 173.447 431.355 175.533C423.933 185.085 416.944 194.727 408.9 203.8C407.689 205.164 404.041 211.68 402.863 208.444C402.33 206.977 402.769 205.328 401.378 203.96C400.662 203.255 397.895 202.867 398.701 201.355C399.238 201.597 399.776 201.839 400.314 202.08C399.896 200.872 399.927 199.549 399.301 198.407C398.912 197.698 398.152 197.362 397.888 196.564C397.524 195.46 398.142 194.177 398.038 193.04C397.936 191.905 397.348 190.833 396.997 189.763C394.916 183.418 394.169 177.022 393.104 170.476C392.049 163.999 390.407 157.724 389.763 151.175C389.081 144.257 388.246 137.353 387.133 130.491C389.121 130.77 390.649 132.93 392.055 134.151C394.265 136.07 396.664 137.79 399.049 139.483ZM391.551 206.457C391.094 206.099 390.737 205.658 390.48 205.136C395.168 202.814 392.339 206.776 391.551 206.457ZM388.7 201.504C386.657 202.067 385.189 202.182 383.614 201.341C383.464 201.261 383.636 200.647 383.367 200.521C383.131 200.411 382.771 200.547 382.57 200.444C381.884 200.095 380.683 200.86 380.566 199.524C383.174 198.726 385.738 197.253 388.491 197.005C392.318 196.66 392.141 200.555 388.7 201.504ZM379.748 193.804C376.96 194.456 374.663 195.978 371.701 195.581C368.921 195.208 366.504 193.766 364.311 192.105C369.798 190.551 375.552 190.271 381.034 188.768C382.819 188.279 385.165 186.989 387.089 187.509C389.226 188.087 389.361 190.089 390.001 191.911C386.581 192.526 383.134 193.012 379.748 193.804ZM362.311 186.074C359.633 186.714 356.895 188.113 354.655 185.698C354.294 185.309 353.977 185.698 354.02 184.497C354.065 183.231 355.214 182.416 356.202 181.97C358.526 180.923 361.783 181.6 364.25 181.446C368.187 181.201 372.193 180.383 376.087 179.753C378.782 179.317 381.567 178.349 384.322 178.54C386.449 178.688 389.016 180.501 385.916 181.823C383.092 183.028 378.859 182.844 375.8 183.365C371.279 184.137 366.773 185.008 362.311 186.074ZM359.695 173.473C359.868 173.65 360.042 173.827 360.215 174.003C360.186 173.997 361.242 173.142 361.522 173.117C362.88 172.999 364.246 173.093 365.605 173.016C368.739 172.839 371.897 172.293 374.975 171.692C377.482 171.202 380.036 170.358 382.616 170.57C384.85 170.752 385.085 171.21 385.231 173.366C379.528 173.366 373.654 173.246 368.05 174.453C364.401 175.239 360.38 177.578 358.552 173.361C358.933 173.398 359.314 173.436 359.695 173.473ZM363.26 164.345C364.674 165.422 368.529 163.631 370.224 163.452C372.064 163.257 373.796 163.055 375.579 162.597C377.161 162.19 382.393 160.157 383.606 162.101C385.466 165.079 377.936 165.626 376.742 165.773C371.735 166.392 366.54 166.94 361.668 168.253C362.199 166.951 362.729 165.648 363.26 164.345ZM370.128 154.23C370.493 155.606 381.816 150.534 382.022 154.22C382.181 157.049 370.82 158.458 368.777 158.21C369.256 156.908 370.528 155.741 370.128 154.23ZM373.929 145.577C374.17 142.8 374.542 142.816 376.769 142.555C378.467 142.355 380.802 141.36 380.36 144.387C379.981 146.978 373.687 148.379 373.929 145.577ZM377.976 136.024C378.512 134.533 379.718 136.539 379.743 137.297C379.811 139.315 378.281 138.878 376.809 138.878C377.219 137.936 377.609 136.983 377.976 136.024ZM396.612 124.834C396.311 124.472 394.626 124.334 394.146 124.158C392.966 123.726 393.134 122.805 391.624 123.713C391.549 123.637 391.692 122.954 391.61 122.923C391.569 122.907 390.511 122.508 390.168 122.287C389.338 121.756 388.591 121.236 387.829 120.57C387.019 119.862 386.207 118.834 385.282 118.27C384.891 118.033 384.572 117.696 384.102 117.623C382.881 117.435 383.231 118.285 382.164 118.454C381.507 118.558 381.028 117.791 380.169 118.122C379.426 118.407 378.995 119.449 378.664 120.069C377.461 122.325 376.533 124.753 375.355 127.033C369.332 138.693 362.487 149.91 356.652 161.678C353.843 167.347 350.911 173.056 348.933 179.081C347.507 183.426 344.286 189.774 347.057 194.116C349.071 197.273 353.105 198.636 356.324 200.162C361.166 202.457 365.63 205.457 370.526 207.683C376.364 210.336 382.033 213.112 387.724 216.076C390.151 217.34 392.341 219.16 394.76 220.357C396.239 221.089 398.524 219.84 399.006 221.518C400.86 219.272 403.862 220.769 406.007 219.188C407.269 218.258 408.191 216.425 409.243 215.28C410.822 213.562 412.536 211.969 414.147 210.281C420.54 203.578 426.443 196.597 432.26 189.398C437.816 182.523 444.307 176.027 449 168.502C450.863 165.514 451.201 162.381 449.971 159.081C449.073 156.673 446.91 153.038 443.819 154.632C444.991 152.686 440.471 150.608 439.1 150.228C439.079 150.223 438.809 151.717 438.426 151.68C438.563 151.693 437.277 148.368 436.713 147.942C435.037 146.673 432.997 145.193 431.168 144.149C429.491 143.191 427.72 142.717 426.096 141.645C424.126 140.347 422.317 138.807 420.34 137.517C418.431 136.272 416.303 134.8 414.193 133.944C412.364 133.201 410.721 133.055 409.074 131.838C407.038 130.332 405.262 129.311 402.913 128.273C400.881 127.375 398.065 126.591 396.612 124.834Z" fill="#310058"/>
<path fill-rule="evenodd" clip-rule="evenodd" d="M119.25 305.163C119.624 304.286 119.996 303.408 120.37 302.531C120.832 304.061 120.961 304.822 119.25 305.163ZM119.747 309.216C118.938 309.361 119.257 306.822 119.257 306.38C120.655 307.171 119.497 308.12 119.747 309.216ZM118.485 301.891C119.175 301.484 119.865 301.077 120.555 300.669C119.594 302.449 119.971 301.337 120.368 302.526C119.643 302.734 118.938 302.491 118.485 301.891ZM114.396 315.806C111.81 325.19 103.595 332.591 94.9182 336.424C89.9322 338.626 85.0303 339.177 79.646 338.932C77.5694 338.837 75.1258 338.162 73.1273 338.288C71.5885 338.385 71.6579 338.451 70.3834 339.754C69.8195 338.716 70.2279 337.987 69.0969 337.382C67.6856 336.628 67.0997 337.507 66.3997 338.551C65.4835 337.601 65.1085 337.105 63.9214 336.542C63.9588 336.56 62.785 336.515 62.8331 336.53C62.6209 336.464 61.3444 335.643 60.9446 335.494C59.3045 334.879 57.408 334.626 55.8946 333.743C54.5707 332.972 53.4804 330.808 51.9657 332.471C51.9643 329.693 48.2215 328.54 46.4672 327.085C43.726 324.811 41.5466 321.444 40.18 318.187C38.7227 314.713 38.2362 311.384 37.5543 307.804C37.0778 305.303 33.9576 301.688 35.8313 299.164C36.2778 300.223 36.0682 301.306 36.8096 302.266C37.4769 300.98 37.8439 299.541 38.1455 298.134C38.2936 297.445 39.1517 295.421 39.0543 294.821C38.8561 293.592 37.3347 293.525 38.1782 292.018C39.9278 293.922 41.3398 290.579 40.0179 289.246C39.3653 289.982 39.1257 290.819 38.8248 291.73C37.1045 288.257 41.8656 289.376 40.824 286.241C42.5616 285.907 43.5605 285.469 44.2211 283.752C44.9558 281.842 44.4153 281.425 46.0835 280.163C46.6574 279.729 48.2802 279.105 48.5772 278.391C49.1517 277.012 47.6897 276.603 48.9702 275.31C49.4026 276.069 51.0882 277.571 52.011 276.142C52.1959 275.857 51.4198 275.654 51.9843 274.998C52.8204 274.026 53.756 273.073 55.17 273.278C54.0502 270.478 61.2049 270.257 63.0373 269.596C64.8736 268.935 66.4317 268.5 68.3789 268.347C70.324 268.194 70.4208 267.624 72.0676 266.453C72.2071 268.128 72.6101 267.76 73.8012 268.055C74.0875 267.564 74.3811 267.509 74.6814 267.89C74.9803 268.174 75.346 268.308 75.7771 268.292C76.431 268.326 77.173 268.24 77.8583 268.254C79.4672 268.286 81.1267 268.151 82.7048 268.186C83.1119 268.117 83.4922 267.976 83.8486 267.76C83.9974 268.041 84.1469 268.322 84.295 268.603C85.1311 268.707 85.1958 269.755 86.2241 268.609C86.5284 270.066 87.4025 269.308 88.3261 269.703C89.1682 270.064 89.3023 270.64 90.0797 271.043C90.5908 271.457 91.1387 271.512 91.7246 271.208C92.2817 271.621 92.8476 272.022 93.4215 272.411C94.4791 273.009 95.7256 273.374 96.84 273.846C97.5813 274.152 98.318 274.47 99.0487 274.8C99.0707 275.682 99.4664 275.993 100.235 275.734C100.93 276.315 101.125 276.292 101.799 277.282C103.326 279.525 104.681 281.267 106.609 283.272C114.991 291.986 117.566 304.307 114.396 315.806ZM116.969 278.749C113.184 273.681 107.828 267.879 103.015 264.678C100.575 263.055 97.1509 260.143 94.1675 259.285C93.4602 259.081 92.7281 259.068 92.0328 258.854C91.4957 258.689 91.2034 258.138 90.5908 258.039C90.1624 257.969 90.1151 258.928 89.66 258.84C88.7084 258.655 88.1052 257.71 87.4332 257.12C85.9899 259.607 85.2065 255.424 83.0872 258.236C80.5649 254.281 74.6394 255.146 70.6116 255.346C69.4172 255.404 68.856 255.829 67.797 256.144C66.8114 256.437 66.714 256.362 65.6377 256.354C62.9572 256.333 60.5776 256.67 58.1 257.847C53.9375 259.824 50.1166 262.905 46.1629 265.288C41.7442 267.951 37.7611 271.341 34.3807 275.236C22.16 289.32 18.8923 309.877 28.6367 326.204C44.1144 352.135 84.0387 354.907 106.662 337.312C124.14 323.717 130.791 297.255 116.969 278.749Z" fill="#310058"/>
<path fill-rule="evenodd" clip-rule="evenodd" d="M308.539 205.776C308.105 206.813 304.048 206.464 303.96 205.242C303.827 203.416 309.294 203.975 308.539 205.776ZM312.848 205.098C315.147 205.285 318.923 206.847 321.139 205.903C324.52 204.463 320.969 202.253 319.156 201.592C317.31 200.92 314.561 201.277 313.612 199.348C312.898 197.896 314.662 193.844 312.474 194.496C310.177 195.179 310.845 200.983 307.241 199.027C305.522 198.093 306.223 192.406 303.344 195.312C302.556 196.107 302.487 197.566 301.443 198.158C300.378 198.764 299.042 198.133 297.918 198.186C294.941 198.325 293.993 201.11 297.009 202.214C298.125 202.623 302.333 203.122 299.784 204.947C298.178 206.096 294.61 203.684 293.231 205.685C291.335 208.433 296.413 208.495 297.777 209.317C300.089 210.709 298.18 213.96 298.364 216.276C298.646 219.814 300.701 219.075 301.448 216.08C302.081 213.54 301.296 209.883 305.126 210.893C311.362 212.537 301.658 220.455 306.226 222.48C309.139 223.772 309.551 216.789 309.778 215.587C310.615 211.149 313.108 212.184 316.885 212.32C321.297 212.479 322.362 209.215 317.69 208.281C316.199 207.982 314.148 208.359 312.854 207.41C312.088 206.849 311.035 204.951 312.848 205.098Z" fill="#310058"/>
<path fill-rule="evenodd" clip-rule="evenodd" d="M149.946 350.096C146.375 348.817 140.402 349.093 139.518 353.705C139.149 355.635 139.869 357.677 141.202 359.08C142.748 360.706 145.21 360.857 145.079 358.025C144.987 356.065 143.122 354.363 146.401 353.968C148.442 353.722 151.46 355.248 151.561 357.502C151.791 362.583 142.996 362.982 139.755 362.103C133.323 360.36 135.07 353.622 139.488 350.547C140.629 349.753 143.903 348.529 144.052 346.879C144.251 344.69 141.545 345.137 140.218 345.425C130.467 347.548 128.342 363.883 138.531 366.963C143.158 368.361 149.674 366.917 152.462 362.727C155.077 358.798 155.112 351.945 149.946 350.096Z" fill="#310058"/>
<path fill-rule="evenodd" clip-rule="evenodd" d="M20.6573 234.457C17.6091 235.925 14.5609 237.392 11.5134 238.86C10.5058 236.704 8.8036 230.813 6.24789 230.061C2.11072 228.844 4.74516 235.264 5.45915 236.732C6.0457 237.938 7.4063 239.806 7.07599 241.244C6.63291 243.18 3.90104 243.866 2.47105 244.865C-1.06757 247.338 -1.03955 252.532 4.08521 250.331C6.98523 249.085 10.5759 245.631 12.7986 249.553C13.8249 251.362 16.2565 261.473 18.7962 254.861C20.3677 250.767 12.804 246.514 16.5328 243.051C17.7332 241.936 19.1385 241.842 20.3376 241.202C23.2337 239.654 21.6008 236.795 20.6573 234.457Z" fill="#310058"/>
<path fill-rule="evenodd" clip-rule="evenodd" d="M467.53 87.9615C465.712 87.2969 463.464 85.999 461.445 86.4414C459.298 86.9112 458.434 89.0612 456.873 90.3537C452.63 93.8683 450.158 88.6301 447.827 85.7595C445.625 83.049 442.938 82.391 439.831 84.0566C438.593 84.7205 433.378 87.7627 434.288 89.7118C434.942 91.1144 437.518 89.8553 438.397 89.549C440.305 88.885 442.077 88.3038 444.028 89.2721C447.688 91.0871 448.637 96.0644 453.065 96.8404C457.644 97.6432 457.794 93.2858 461.062 91.6456C463.253 90.5466 464.779 92.4924 466.892 92.1047C468.906 91.7357 469.838 88.805 467.53 87.9615Z" fill="#310058"/>
<path fill-rule="evenodd" clip-rule="evenodd" d="M430.562 105.523C432.181 105.874 433.238 102.733 434.252 101.937C435.933 100.616 438.849 100.35 440.561 101.679C443.905 104.273 442.752 109.875 447.513 111.335C451.769 112.64 453.773 107.035 457.355 105.64C459.438 104.829 461.724 104.297 460.911 101.386C460.35 99.3728 458.697 98.8557 456.899 99.629C453.809 100.957 452.76 106.367 449.098 106.463C445.308 106.563 444.897 101.1 443.27 98.7209C440.79 95.0942 435.691 94.218 432.794 97.6859C431.919 98.7322 427.478 104.855 430.562 105.523Z" fill="#310058"/>
<path fill-rule="evenodd" clip-rule="evenodd" d="M355.655 43.5917C357.908 45.1331 362.397 45.0797 364.472 43.1679C366.584 41.2228 363.765 40.9239 362.045 40.9833C360.722 41.0293 358.245 41.6852 358.999 39.3998C359.668 37.3719 363.347 38.4042 363.654 36.1781C360.885 35.6817 357.836 35.8605 355.788 38.0365C354.307 39.6093 353.546 42.1483 355.655 43.5917Z" fill="#310058"/>
</svg>
