
<svg width="349" height="222" viewBox="0 0 349 222" fill="none" xmlns="http://www.w3.org/2000/svg">
<path fill-rule="evenodd" clip-rule="evenodd" d="M177.673 88.7867C191.622 87.6772 204.93 92.8753 216.079 100.977C230.448 111.419 242.626 126.352 250.87 142.088C251.747 142.763 252.611 143.456 253.469 144.155C258.057 147.892 262.539 151.84 266.512 156.234C268.73 158.687 274.549 164.651 272.023 168.413C271.487 169.211 270.606 169.67 269.725 169.986C267.253 170.871 264.676 171.32 262.237 172.355C259.228 173.633 256.107 175.423 254.179 178.151C253.63 178.927 253.487 179.843 252.75 180.185C251.968 180.548 250.494 180.406 249.64 180.49C247.922 180.659 246.204 180.827 244.486 180.995C240.45 181.391 236.232 181.435 232.283 182.409L214.12 186.894C210.406 187.811 206.136 188.317 202.613 189.824C197.356 192.074 192.34 195.368 187.31 198.083C184.878 199.396 182.445 200.708 180.013 202.021C178.825 202.662 178.012 202.671 176.62 202.778L166.574 203.551C164.953 203.676 164.175 204.328 163.963 202.706L161.628 184.878L160.394 175.45C160.32 174.889 160.342 172.112 159.882 171.777C159.594 171.566 157.903 172.019 157.59 172.057L153.03 172.616C149.746 173.018 146.463 173.42 143.179 173.822C142.912 173.854 141.436 173.838 141.27 174.056C141.076 174.311 141.445 175.777 141.478 176.092C141.826 179.403 142.175 182.714 142.523 186.024C142.564 186.408 143.03 188.188 142.785 188.503C142.614 188.722 141.377 188.749 141.125 188.79C137.957 189.307 134.79 189.824 131.622 190.341C129.353 190.711 126.388 190.693 124.244 191.546C123.012 192.036 121.794 193.288 120.73 194.071L105.28 205.44C102.936 207.164 99.7781 206.725 96.9245 206.942L64.0067 209.45C64.0339 208.425 64.0615 207.4 64.0888 206.374C64.2336 200.944 64.3781 195.515 64.5229 190.085L64.7126 182.983C64.7245 182.533 64.545 181.218 64.8388 180.886C65.2293 180.445 66.9745 180.254 67.5162 180.093C69.3331 179.555 71.1497 179.018 72.9662 178.48C78.296 176.903 83.6251 175.325 88.9546 173.748C94.222 172.189 99.4888 170.629 104.756 169.07C106.558 168.537 108.36 168.003 110.162 167.47C110.578 167.347 112.033 167.183 112.322 166.831C112.687 166.387 112.523 164.495 112.582 163.933C112.868 161.189 113.275 158.458 113.772 155.745C117.353 136.177 125.722 116.3 141.24 103.246C151.498 94.616 164.366 89.8451 177.673 88.7867ZM180.133 128.028C178.753 126.407 176.433 123.762 173.993 124.201C172.01 124.558 170.93 127.016 170.239 128.65C167.461 135.217 166.6 142.745 165.736 149.764C165.194 154.168 164.758 158.591 164.479 163.02C174.374 162.258 184.269 161.497 194.164 160.736C193.697 157.583 193.323 154.401 192.76 151.263C192.479 149.69 191.699 148.274 191.033 146.822C188.052 140.323 184.799 133.506 180.133 128.028Z" fill="#FF4878"/>
<path fill-rule="evenodd" clip-rule="evenodd" d="M317.493 0L317.735 0.00418111C324.301 0.178893 330.092 4.40445 334.584 8.87632C336.804 11.0875 338.83 13.6883 339.783 16.7148C340.883 20.2109 340.521 24.0564 339.684 27.5652C337.834 35.3194 335.573 43.1134 333.031 50.6704C331.78 54.3879 329.966 58.033 329.022 61.8378C328.244 64.9725 331.521 67.2557 331.647 70.4771C331.773 73.7268 329.587 76.7797 326.582 77.9411C325.303 78.4358 323.755 78.0225 322.575 78.5295C321.496 78.9928 321.118 80.3602 320.911 81.41C320.629 82.8416 320.68 84.2722 320.76 85.7165C320.809 86.6002 320.589 88.0423 321.02 88.8303C321.316 89.3717 321.855 89.5486 322.32 89.9189C322.954 90.4244 323.377 91.0534 323.933 91.6343C324.85 92.593 325.732 93.1123 325.981 94.5107C326.114 94.193 326.246 93.8753 326.379 93.558C327.062 94.8082 327.569 95.4078 326.919 96.5946C328.935 96.3967 330.13 100.054 330.658 101.442C331.626 103.98 332.291 106.618 333.261 109.158C334.591 112.641 336.338 116.078 337.187 119.721C337.899 122.784 338.464 125.93 339.097 129.014C339.454 130.75 339.765 132.514 340.418 134.169C340.672 134.812 341.143 135.245 341.435 135.818C341.834 136.602 341.678 137.017 341.697 137.876C341.73 139.407 342.697 140.401 343 141.889C343.325 143.478 343.59 145.085 343.917 146.678C344.577 149.886 345.799 153.089 346.093 156.338C346.435 160.112 347.167 163.838 347.536 167.613C347.858 170.91 347.31 174.451 347.999 177.641C348.61 180.473 347.853 183.062 347.583 185.874C347.515 186.587 348.614 190.837 346.847 190.021C347.179 191.023 347.644 191.501 347.669 192.6C347.693 193.628 347.428 194.685 347.211 195.681C346.793 197.608 346.514 199.707 345.695 201.512C344.769 203.553 343.358 203.798 341.439 204.498C340.14 204.972 337.8 206.664 336.777 204.854C336.166 206.712 334.975 205.428 333.639 205.324C333.648 205.324 332.875 205.61 332.73 205.63C332.26 205.693 331.705 205.472 331.238 205.433C330.072 205.336 328.929 205.492 327.79 205.728C325.163 206.272 322.623 207.025 319.958 207.404C314.752 208.145 309.65 207.795 304.437 208.119C294.234 208.753 283.862 208.221 273.652 207.946C272.556 207.917 271.375 208.07 270.293 207.902C269.127 207.72 268.873 207.168 267.965 206.616C266.455 205.698 264.779 206.591 263.213 206.926C258.614 207.91 253.811 207.983 249.175 208.936C239.756 210.87 231.078 214.687 222.056 217.907C218.145 219.303 213.554 221.563 209.336 221.661C204.225 221.772 205.432 216.737 206.372 213.501C203.418 214.285 198.781 217.867 195.779 215.788C192.201 213.311 196.753 209.192 196.967 206.281C190.574 207.608 183.321 210.518 176.831 208.152C175.582 207.697 174.496 206.735 173.155 206.578C171.761 206.416 170.288 206.908 168.879 206.9C165.67 206.879 162.553 206.452 159.344 206.847C152.19 207.728 145.138 208.211 137.926 208.401C130.666 208.592 123.406 209.022 116.142 209.004C112.455 208.995 108.7 208.557 105.021 208.753C103.576 208.83 100.466 209.88 99.4514 208.411C98.4323 209.633 97.5665 208.817 96.2592 208.952C96.5015 208.927 95.5783 209.461 95.4394 209.513C94.7521 209.768 94.1096 209.69 93.3921 209.683C91.4808 209.664 89.6952 210.558 87.7935 210.471C87.3127 210.45 86.9491 210.31 86.5411 210.145C86.4444 210.106 86.4675 209.69 86.3126 209.655C85.3823 209.447 85.6227 210.016 85.0321 210.304C84.3773 210.622 83.4086 210.107 83.7811 211.086C82.0045 211.008 80.3213 211.607 78.7048 210.553C79.469 212.242 76.7994 210.839 76.1017 210.811C74.9421 210.765 73.9267 211.345 72.7702 211.478C71.3833 211.638 69.9897 210.995 68.6327 211.388C67.5695 211.695 67.2056 212.434 66.0991 212.056C65.159 211.735 64.5718 211.037 64.1156 210.275C63.4862 209.222 63.4056 208.753 61.8877 208.734C60.7621 208.72 59.6306 208.962 58.4942 208.96C57.1921 208.958 55.7612 208.819 54.5726 209.438C53.2921 210.105 52.5399 211.12 51.1198 211.642C44.7339 213.991 37.7237 213.369 31.0608 213.329C28.2497 213.312 26.1868 213.571 25.3976 210.364C24.7309 207.655 24.4636 204.822 23.8275 202.09C23.048 198.744 22.1912 195.638 20.4616 192.646C18.7841 189.745 17.3726 186.747 15.9118 183.733C12.8738 177.464 8.64487 172.13 3.9299 167.036C2.13874 165.101 0.0858754 162.944 0.00251416 160.157C-0.0585975 157.75 1.00162 155.257 2.39222 153.34C3.63386 151.628 5.67963 149.698 7.99381 150.097C9.3874 150.337 10.3009 151.461 11.341 152.305C12.4777 153.226 13.716 153.854 15.0861 154.357C18.2809 155.528 20.96 156.811 23.7267 158.833C26.5261 160.88 29.1431 163.172 31.564 165.655C36.2114 170.42 40.9734 175.37 43.6438 181.541C44.6961 183.972 45.3685 186.316 46.086 188.837C46.7908 191.312 48.7097 190.63 50.8674 190.274C53.4971 189.84 56.1397 189.608 58.7869 189.333C59.7833 189.23 61.1881 189.199 61.788 188.258C62.4495 187.219 61.6917 185.874 61.6316 184.797C61.5995 184.222 61.7902 183.798 61.838 183.237C61.8929 182.599 61.7044 182.016 61.7036 181.381C61.7029 180.014 62.3424 178.797 63.4052 177.97C65.3939 176.421 68.2945 175.497 70.649 174.645C73.8636 173.481 77.3082 172.909 80.6188 172.078C84.3463 171.143 88.0963 170.3 91.844 169.45C95.5264 168.615 99.2032 167.757 102.925 167.114C105.108 166.737 107.477 166.875 109.593 166.185C111.842 165.453 111.469 163.19 111.462 161.185C111.452 157.874 111.862 154.464 112.346 151.191C113.378 144.231 115.836 137.421 118.071 130.77C120.223 124.365 122.89 118.217 127.292 113.019C131.577 107.959 136.837 103.379 142.293 99.6188C147.978 95.7005 154.303 92.8696 160.238 89.3717C158.941 88.3798 157.394 87.5335 156.649 86.0059C155.807 84.2815 156.164 82.2197 156.199 80.3766C156.24 78.2965 156.303 76.4706 157.046 74.4891C157.453 73.4038 159.024 71.3454 158.784 70.1653C158.38 68.1838 154.045 66.7364 152.449 65.9211C149.945 64.6421 147.437 63.343 145.13 61.7284C142.916 60.1795 140.833 58.3152 139.491 55.9375C139.111 55.263 138.798 54.5544 138.555 53.819C138.284 52.9984 138.473 52.7188 137.653 52.6587C136.344 52.5624 134.381 53.8765 133.278 54.457C127.59 57.4498 121.344 61.4775 114.633 61.2103C112.199 61.1136 109.461 60.3486 108.601 57.8094C107.467 54.4663 109.834 51.0128 111.91 48.5982C107.86 49.2347 100.391 51.2241 97.1955 47.6104C95.0657 45.2025 96.6721 41.3805 98.458 39.2925C100.818 36.5345 104.182 34.8553 107.289 33.1004C103.476 31.6467 99.2551 30.7171 95.9019 28.2846C92.6948 25.9585 93.0912 22.3847 95.6242 19.6409C98.3322 16.7077 103.067 15.2055 106.792 14.1165C111.359 12.7808 115.897 12.888 120.605 12.9776C129.053 13.1381 136.31 16.2523 143.239 20.9605C146.902 23.4502 150.513 26.1369 153.763 29.1522C156.811 31.98 160.062 34.6097 163.065 37.4682C165.974 40.2378 168.263 43.6693 171.334 46.2567C173.945 48.4567 176.808 51.575 180.126 52.5516C183.643 53.5872 186.81 55.2999 190.357 56.3195C194.382 57.4756 197.839 59.409 201.568 61.2536C217.219 68.9946 234.021 74.0325 250.522 79.5901C258.962 82.4325 267.457 84.4361 276.074 86.6069C280.401 87.697 284.419 88.2786 288.884 88.0815C289.914 88.0363 290.897 88.0094 291.913 88.1524C292.657 88.2569 293.223 88.5384 293.889 88.0934C294.845 87.4543 295.204 85.7908 295.775 84.8437C292.597 83.8585 289.486 82.7927 288.036 79.5363C287.123 77.4842 286.648 75.0909 286.248 72.889C286.033 71.7041 286.028 70.5084 285.844 69.3228C285.744 68.668 285.432 67.9837 285.456 67.3147C285.385 67.6869 283.017 66.4628 282.673 66.2355C281.349 65.3578 281.107 63.5886 281.118 62.0954C281.131 60.4087 281.64 58.5549 282.785 57.2759C283.327 56.6704 283.973 56.2164 284.761 55.9883C285.32 55.8263 286.057 56.0383 286.551 55.8752C288.738 55.1521 288.983 49.7387 289.293 47.7679C289.977 43.4255 290.659 39.2799 292.135 35.1174C294.826 27.5286 298.29 20.1534 302.415 13.2441C305.95 7.3237 309.482 0.0844439 317.254 0H317.493ZM250.305 182.297C247.159 182.842 244.145 183.954 241.106 184.898C238.268 185.779 235.392 186.34 232.48 186.913C226.686 188.053 220.765 189.096 215.054 190.582C213.447 191.001 212.601 191.945 211.198 192.602C210.158 193.089 209.181 192.596 208.1 192.554C205.744 192.464 203.131 193.232 200.866 193.805C195.518 195.156 190.773 197.503 185.934 200.097C185.501 200.329 182.573 201.669 182.712 202.223C182.825 202.676 186.547 201.46 187.139 201.37C190.136 200.914 193.063 199.969 196.038 199.382C198.48 198.9 200.949 198.574 203.381 198.039C206.087 197.444 211.851 195.374 212.08 199.843C212.327 204.673 206.994 206.158 203.788 208.411C204.145 209.028 209.289 206.995 209.926 206.79C212.113 206.085 214.142 204.814 216.369 204.272C220.244 203.331 219.774 207.61 217.636 209.513C215.259 211.628 211.329 212.267 210.013 215.521C211.741 216.144 214 214.974 215.588 214.392C217.672 213.627 219.765 212.875 221.862 212.146C226.57 210.51 231.041 208.257 235.774 206.698C245.485 203.501 255.749 202.584 265.9 202.016C264.996 198.507 264.007 195.019 263.194 191.487C262.846 189.975 262.527 188.457 262.264 186.928C262.081 185.865 262.237 183.321 261.504 182.482C260.612 181.461 258.29 182.895 257.026 182.868C255.787 182.841 254.884 182.202 253.74 182.001C252.653 181.809 251.368 182.113 250.305 182.297ZM67.845 202.608C67.845 204.285 67.5542 206.32 69.7605 206.516C71.545 206.674 75.0359 206.878 76.4593 205.609C75.0952 204.944 73.5448 204.828 72.096 204.445C70.5863 204.045 69.1923 203.389 67.845 202.608ZM104.26 172.046C103.589 172.051 102.457 172.797 101.845 173.005C100.724 173.386 99.5858 173.708 98.442 174.01C95.0052 174.921 90.5803 175.062 89.0023 178.752C88.2146 180.593 87.6685 185.327 84.9313 185.31C82.4984 185.295 81.0414 181.783 79.3058 180.534C77.512 179.243 74.6681 180.122 72.7336 180.682C70.7677 181.252 67.717 181.982 67.9376 184.474C68.0963 186.265 68.4196 187.895 68.4043 189.725C68.3852 192.054 68.1885 194.378 68.1885 196.707C69.5686 194.816 70.7726 191.015 73.2178 190.254C75.688 189.486 77.0854 193.802 77.7278 195.456C78.5241 197.506 79.525 199.83 79.5858 202.051C79.6049 202.749 79.1815 204.664 79.6665 205.238C80.0969 205.747 81.7525 205.378 82.2875 205.322C85.5984 204.978 88.8918 204.549 92.2132 204.261C93.9189 204.114 94.3833 203.739 94.2164 201.905C94.0854 200.464 94.0447 199.09 94.2254 197.644C95.0317 191.185 99.009 185.277 105.734 184.155C109.786 183.479 114.519 183.973 118.564 184.623C120.124 184.873 121.817 185.628 123.401 185.562C124.571 185.514 124.194 185.447 124.434 184.346C124.602 183.576 124.96 182.918 125.546 182.385C126.009 181.963 126.597 182.201 127.033 181.65C127.349 181.251 127.301 180.707 127.45 180.247C127.741 179.352 128.267 178.145 129.313 177.919C130.997 177.555 132.787 179.809 133.637 180.972C134.515 182.175 134.781 185.765 136.193 186.235C137.823 186.776 139.761 184.641 140.101 183.295C140.558 181.485 139.982 179.527 139.707 177.735C139.688 177.607 139.607 176.416 139.519 176.338C139.281 176.129 137.49 176.187 137.172 176.172C135.611 176.097 134.048 176.094 132.486 176.089C126.361 176.074 120.361 175.472 114.277 174.83C115.16 176.27 116.673 178.636 115.12 180.157C113.969 181.283 111.892 180.718 110.447 180.95C108.405 181.278 104.962 183.216 103.016 181.799C100.274 179.802 103.376 176.371 104.394 174.483C104.613 174.078 105.421 172.655 105.078 172.18C104.782 171.769 104.695 172.043 104.26 172.046ZM58.5868 194.243C57.1865 194.67 55.7758 195.081 54.3452 195.397C52.6672 195.769 50.0652 195.408 49.2487 197.254C48.6275 198.658 48.9359 200.922 49.4406 202.32C50.0185 203.922 51.3748 204.333 52.9755 204.455C54.8436 204.598 56.7363 204.297 58.5824 204.041C59.3099 203.941 60.0857 203.759 60.8249 203.758C61.2635 203.757 62.149 204.158 62.5391 203.83C63.0442 203.405 62.7116 200.989 62.672 200.41C62.5738 198.976 62.3017 197.561 62.2274 196.125C62.1744 195.094 62.5634 193.692 61.3542 193.472C60.6012 193.335 59.2413 194.044 58.5868 194.243ZM171.664 165.857C170.618 166.038 169.578 166.168 168.515 166.152C167.86 166.142 167.076 165.919 166.471 166.278C165.353 166.942 165.52 168.689 165.558 169.78C165.604 171.103 165.72 172.445 165.861 173.762C165.996 175.021 166.687 177.094 165.711 178.172C165.023 177.419 164.684 174.957 163.356 175.047C161.896 175.146 162.571 177.479 162.7 178.314C163.416 182.933 164.232 187.554 164.871 192.185C165.175 194.387 165.568 196.573 165.771 198.785C165.907 200.271 165.953 201.608 167.613 201.915C169.151 202.201 170.88 201.714 172.435 201.676C174.035 201.638 174.952 201.529 175.873 200.082C173.668 199.6 170.175 199.895 168.932 197.563C167.484 194.841 170.539 192.393 172.043 190.533C173.196 189.105 175.556 184.357 177.698 187.177C178.469 188.192 178.608 189.742 178.998 190.923C179.631 192.842 180.405 194.734 181.165 196.606C188.112 193.02 195.24 189.787 202.816 187.773C200.885 184.509 198.494 181.569 197.048 178.03C195.428 174.065 194.086 169.991 192.429 166.038C189.803 167.57 186.995 163.854 184.38 163.705C180.249 163.468 175.714 165.155 171.664 165.857ZM130.513 192.593C129.073 193.451 126.954 195.119 126.609 196.844C126.011 199.826 129.414 197.832 130.465 197.179C132.664 195.814 134.819 195.377 137.344 196.219C140.583 197.298 143.568 199.12 147.044 197.736C148.773 197.047 152.61 195.575 151.575 192.933C150.861 191.112 148.772 192.674 147.668 193.327C144.778 195.036 142.385 193.953 139.497 192.719C136.609 191.485 133.356 190.9 130.513 192.593ZM27.9429 177.291C26.7867 178.93 29.1371 178.576 30.169 178.736C32.3267 179.07 34.5491 180.79 33.9544 183.225C33.3746 185.599 31.103 187.083 30.6703 189.575C30.2985 191.715 30.6569 194.423 32.7232 195.598C33.8838 196.257 36.4205 196.529 37.5886 195.771C39.3723 194.614 37.157 192.891 35.977 192.318C34.4132 191.558 33.1503 191.147 33.9241 189.151C34.8675 186.718 36.6997 184.851 36.537 182.067C36.4026 179.761 35.1852 177.14 32.9673 176.182C31.3792 175.496 29.0259 175.756 27.9429 177.291ZM185.806 170.221C187.804 170.136 187.884 172.551 187.783 173.739C187.645 175.363 187.94 177.094 187.974 178.724C188.019 180.882 188.471 187.95 184.655 186.9C182.2 186.225 180.181 183.873 178.208 182.362C176.393 180.971 171.779 179.303 171.48 176.665C171.143 173.687 174.781 173.129 176.865 172.656C179.841 171.98 182.731 170.353 185.806 170.221ZM176.069 91.7168C172.899 92.0226 169.747 92.4933 166.731 93.5461C164.69 94.2584 161.555 94.769 160.109 96.5169C158.858 98.0285 159.4 100.183 158.994 101.969C158.444 104.385 156.776 104.055 155.158 102.546C153.222 100.74 152.662 99.4325 149.967 101.127C144.388 104.636 139.965 109.816 135.539 114.614C138.961 115.65 145.675 115.901 146.811 120.177C147.432 122.515 145.56 124.215 143.877 125.491C141.704 127.138 139.435 128.662 137.31 130.375C135.326 131.974 130.879 138.34 129.621 132.743C128.841 129.278 130.301 125.698 129.682 122.275C126.991 126.614 124.259 130.942 121.791 135.414C119.691 139.22 118.47 143.292 117.463 147.501C119.033 147.604 120.668 146.807 122.22 147.277C123.715 147.731 124.414 149.145 124.519 150.61C124.698 153.093 123.551 155.621 122.974 158.006C122.578 159.645 122.123 163.362 120.127 163.895C117.853 164.503 116.426 161.005 115.412 159.583C114.447 161.067 114.463 163.238 114.322 164.939C114.225 166.108 113.572 168.295 114.888 168.942C116.119 169.547 118.715 168.789 120.032 168.733C122.475 168.629 124.965 168.431 127.409 168.503C129.718 168.572 133.115 169.806 134.017 166.968C134.631 165.036 135.172 158.093 138.448 161.86C139.903 163.533 141.041 165.44 142.446 167.144C143.864 168.864 145.153 168.976 147.27 168.889C151.462 168.718 155.555 169.522 159.656 170.172C163.255 170.742 162.783 167.688 162.729 164.969C162.648 160.754 163.484 156.346 163.939 152.154C165.023 142.186 167.248 132.338 170.671 122.911C167.808 121.936 162.675 125.87 160.558 122.882C158.817 120.426 161.053 117.043 161.963 114.747C163.099 111.882 163.673 108.89 165.524 106.351C166.109 105.55 166.94 104.476 168.071 104.746C169.042 104.977 169.429 106.215 169.975 106.914C171.708 109.13 173.923 110.793 175.464 113.211C176.407 114.69 177.14 116.271 177.446 118.007C177.53 118.485 177.424 119.462 177.76 119.863C178.801 121.104 182.084 121.086 183.543 121.847C188.524 124.446 190.274 132.013 192.208 136.784C192.753 138.127 193.294 139.474 193.583 140.898C193.777 141.85 193.767 143.061 194.284 143.915C195.411 145.778 198.912 144.114 200.631 143.825C203.511 143.341 206.377 142.88 209.268 142.474C211.033 142.226 213.601 141.587 214.945 143.15C216.339 144.771 215.537 147.323 214.838 149.061C213.696 151.899 212.237 154.61 211.032 157.422C210.07 159.665 209.592 162.554 207.745 164.282C206.145 165.78 203.497 166.209 201.613 164.99C200.538 164.295 197.777 157.567 197.049 157.868C198.364 163.064 200.292 168.363 202.329 173.322C202.954 174.846 204.028 177.952 205.608 178.778C206.918 179.463 209.89 178.169 211.231 177.918C212.501 177.68 215.01 176.648 216.225 177.404C217.698 178.321 217.877 180.766 218.043 182.284C218.166 183.41 217.943 184.25 219.312 184.194C220.277 184.155 221.25 183.684 222.176 183.447C224.325 182.899 226.556 182.536 228.744 182.183C233.804 181.366 238.863 180.551 243.921 179.713C248.269 178.993 252.561 178.997 256.49 176.935C258.481 175.889 260.765 175.57 262.885 174.871C264.989 174.178 267.085 173.728 269.287 173.467C274.098 172.898 278.78 172.341 283.536 171.366C286.138 170.833 288.736 170.274 291.324 169.676C293.628 169.144 295.856 168.299 298.149 167.778C300.056 167.344 301.623 167.67 302.44 165.504C303.027 163.952 302.89 162.212 303.041 160.587C303.729 153.162 301.129 145.695 300.597 138.311C300.424 135.919 300.371 133.52 300.192 131.131C300.109 130.036 300.159 126.848 298.882 126.257C298.766 127.133 298.856 128.606 297.861 129.04C298.347 128.828 297.709 131.415 297.675 131.675C297.539 132.708 297.878 133.813 297.699 134.826C297.841 135.182 297.779 135.451 297.514 135.631C297.333 135.778 297.201 135.963 297.119 136.187C297.107 136.909 297.318 136.483 297.328 136.733C297.428 139.217 297.008 141.793 297.188 144.339C297.378 147.029 297.979 149.668 298.435 152.322C298.844 154.704 299.286 157.09 299.627 159.483C299.867 161.162 300.044 163.089 299.141 164.618C297.426 167.52 292.459 167.204 289.567 167.679C284.759 168.468 279.945 169.18 275.12 169.85C273.268 170.107 271.393 170.695 269.519 170.725C267.517 170.756 266.445 169.947 265.183 168.47C262.64 165.493 261 162.112 258.882 158.875C257.692 157.056 256.703 156.577 254.7 156.021C252.84 155.506 251.347 154.149 249.833 153.02C246.654 150.648 242.549 148.07 240.463 144.578C238.267 140.903 241.361 139.683 244.323 138.68C243.602 136.764 242.188 135.225 241.024 133.577C239.7 131.703 238.499 129.757 237.073 127.953C234.167 124.277 231.265 120.62 228.445 116.875C226.034 113.675 223.598 110.643 220.522 108.05C217.432 105.446 213.992 103.312 210.599 101.132C208.826 99.9929 205.714 97.0829 203.474 97.3804C201.301 97.6693 200.442 101.717 199.899 103.418C199.276 105.37 199.056 108.092 197.605 109.629C195.471 111.887 193.257 108.33 192.239 106.69C190.375 103.687 188.467 100.71 186.606 97.7044C185.757 96.334 184.532 95.03 184.029 93.4763C184.023 93.4576 183.787 92.1215 184.025 92.3085L184.041 92.3235L184.025 92.3055C183.493 91.7781 181.526 91.6687 180.791 91.6048L180.724 91.5989C179.177 91.4529 177.611 91.5679 176.069 91.7168ZM155.292 175.931C153.51 175.92 151.733 176.128 149.96 176.273C148.402 176.4 146.974 176.162 145.419 176.068C143.495 175.952 142.543 176.154 142.986 178.141C143.308 179.587 143.696 181.513 145.18 182.124C147.186 182.95 149.887 182.839 152.024 183.151C153.593 183.381 155.157 183.588 156.719 183.85C157.757 184.024 158.289 184.206 158.775 183.03C159.181 182.045 158.919 180.729 158.781 179.711C158.674 178.93 158.738 177.557 158.369 176.862C157.819 175.825 156.376 175.938 155.292 175.931ZM238.36 156.116C240.978 158.509 242.74 161.568 244.716 164.47C245.923 166.241 248.284 169.065 246.57 171.213C245.109 173.044 241.712 172.625 239.669 172.713C236.457 172.851 233.834 174.302 230.778 175.051C223.082 176.936 229.474 163.999 230.54 161.299C231.288 159.405 232.06 157.519 232.965 155.693C233.373 154.871 234.187 152.47 235.202 152.156C236.673 151.7 237.429 155.265 238.36 156.116ZM172.231 128.915C171.007 131.254 170.809 134.49 170.229 137.044C168.456 144.853 167.419 152.806 166.604 160.765C170.658 159.157 174.937 159.046 179.217 158.653C182.318 158.367 185.166 158.041 188.268 158.173C188.797 158.196 190.317 158.464 190.753 158.015C191.338 157.411 190.629 155.728 190.456 155.093C189.516 151.647 189.103 148.085 188.035 144.659C186.945 141.166 185.621 137.677 184.212 134.3C183.182 131.83 181.767 129.421 179.27 128.209C177.083 127.149 173.588 126.321 172.231 128.915ZM155.536 144.113C157.206 146.631 159.321 148.834 160.953 151.376C162.109 153.178 163.464 156.513 160.686 157.659C159.71 158.061 158.559 157.887 157.537 157.905C155.957 157.932 154.392 158.068 152.809 158.03C151.312 157.994 149.83 157.813 148.336 157.735C147.395 157.686 146.213 157.759 145.384 157.218C143.161 155.768 144.769 152.808 145.484 150.915C146.244 148.903 147.27 147 148.261 145.094C148.947 143.772 149.974 141.077 151.536 140.538C153.385 139.9 154.765 142.952 155.536 144.113ZM236.526 115.584C240.197 119.852 243.384 124.508 246.386 129.263C247.851 131.584 249.273 133.932 250.693 136.28C251.622 137.816 252.32 139.782 253.452 141.174C256.034 144.348 256.752 137.422 257.133 135.916C258.537 130.365 260.275 124.858 261.822 119.341H260.237C253.918 119.338 247.861 119.244 241.709 117.383C239.967 116.856 238.38 115.712 236.526 115.584ZM223.18 116.66C225.179 118.136 237.973 126.802 232.591 130.147C231.478 130.839 229.658 130.525 228.399 130.624C226.787 130.751 225.149 130.907 223.555 131.193C221.493 131.563 219.489 132.209 217.416 132.536C215.769 132.796 213.586 133.1 212.114 132.074C209.686 130.381 211.16 127.057 211.961 124.905C213.101 121.848 214.18 117.755 217.007 115.934C217.665 115.51 218.471 113.997 219.179 113.859C220.287 113.641 222.37 116.061 223.18 116.66ZM293.765 44.7709C292.801 45.509 292.757 47.0418 292.507 48.1237C291.665 51.7628 290.491 55.3051 289.794 58.9831C289.114 62.5702 288.901 66.1018 289.234 69.7371C289.457 72.1618 289.482 75.1454 290.956 77.2102C292.72 79.6808 296.213 79.5542 298.854 80.2859C301.396 80.99 303.916 83.1705 301.144 85.4373C300.158 86.2425 298.865 86.3736 297.891 87.1493C296.69 88.1069 296 89.8226 295.489 91.2255C295.069 92.3806 295.081 92.6012 296.337 93.0092C296.91 93.1955 297.49 93.3139 298.093 93.2638C299.467 93.1496 300.692 92.2425 301.842 91.5608C304.776 89.8223 308.164 87.5013 311.667 87.2389C312.786 87.1553 314.059 87.6133 315.147 87.2497C316.162 86.9104 315.85 86.7028 316.027 85.7595C316.724 82.0203 317.008 78.3503 318.914 74.9677C319.855 73.2986 322.343 69.8842 324.011 72.4829C324.707 73.5681 324.959 74.0982 326.504 73.7652C327.761 73.4946 329.141 72.5004 328.892 71.0486C328.657 69.6789 326.856 68.7464 325.764 68.1461C324.31 67.3472 323.291 67.4394 321.708 67.2501C317.357 66.7301 320.407 60.3677 321.035 57.9803C321.429 56.48 321.89 54.5406 320.855 53.1858C319.28 51.1251 315.849 51.8027 313.687 52.095C310.698 52.4993 307.435 52.7147 304.637 51.3581C301.678 49.9231 300.416 46.6864 297.641 45.1129C296.616 44.5313 294.819 43.9638 293.765 44.7709ZM306.754 71.0549C308.811 71.0273 307.811 73.9597 307.248 74.9456C306.062 77.025 303.52 77.8291 301.289 77.0623C299.524 76.4557 297.615 73.776 300.379 73.3318C301.705 73.119 303.017 73.2056 304.273 72.5751C304.989 72.216 305.914 71.0661 306.754 71.0549ZM301.595 55.4616C302.873 56.2373 300.692 61.192 300.324 62.1947C299.726 63.8313 299.194 64.8878 300.716 66.1492C301.774 67.0265 303.861 67.7836 302.864 69.5318C301.942 71.1494 298.778 70.4711 297.492 69.6797C295.622 68.5287 296.173 66.3243 296.585 64.5152C296.855 63.3299 299.32 54.0803 301.595 55.4616ZM100.378 22.9301C104.319 24.6134 108.349 26.1339 112.518 27.1482C116.162 28.0349 119.745 28.9909 123.501 28.7826C126.975 28.5903 127.39 32.0036 125.405 34.3674C124.327 35.6516 123.076 35.6195 121.505 35.6692C119.665 35.7274 117.995 36.2377 116.221 36.6946C113.519 37.3905 110.784 37.9815 108.166 38.9637C106.815 39.4706 105.482 40.0668 104.277 40.8679C103.519 41.3719 101.829 42.2798 102.723 42.9839C104.015 44.0012 107.851 42.6076 109.389 42.5158C112.971 42.3022 116.545 41.9789 120.106 41.5306C121.85 41.3107 123.722 41.0934 125.374 40.4599C126.455 40.0455 127.652 39.0167 128.875 39.278C131.457 39.8294 130.178 43.6999 129.006 44.9591C127.265 46.829 124.622 47.6548 122.374 48.7173C120.802 49.4602 119.24 50.2467 117.714 51.0781C116.993 51.4708 113.633 52.9421 113.74 54.059C113.851 55.2331 116.503 54.641 117.159 54.5343C121.537 53.8223 125.487 52.1297 129.531 50.3976C131.302 49.6394 133.097 48.9118 134.83 48.0711C136.041 47.4835 137.231 46.5882 138.569 46.3213C141.722 45.6915 141.584 49.2138 142.826 51.1166C146.516 56.7715 153.647 59.1839 159.195 62.4519C161.294 63.688 163.296 65.1114 165.222 66.6005C166.598 67.6637 167.148 69.1271 168.684 67.725C169.964 66.5561 170.581 64.8419 171.402 63.3553C172.357 61.6246 173.633 60.0967 174.612 58.3801C176.059 55.8442 176.493 53.4255 173.315 52.4922C169.979 51.5126 167.339 50.0519 164.504 47.9676C157.546 42.8525 151.772 36.3206 144.834 31.1662C138.406 26.3908 131.59 21.9095 123.532 20.6272C115.895 19.4113 107.516 19.7107 100.378 22.9301ZM308.842 59.6617C308.679 61.0699 308.332 64.0732 306.376 64.1856C304.001 64.3218 305.596 57.1045 306.942 56.2922C309.097 54.9916 308.981 58.4686 308.842 59.6617ZM286.736 59.0868C283.77 59.3325 282.925 62.5807 285.889 63.7309L286.736 59.0868ZM297.732 56.2362C297.351 57.7104 297.487 60.0761 296.304 61.2076C294.636 62.8021 293.91 60.4621 293.923 59.1279C293.934 57.8082 294.589 54.5074 296.355 54.3334C297.864 54.1848 296.608 55.9342 297.732 56.2362ZM329.737 23.4371C328.653 25.693 329.818 27.9195 330.467 30.137C329.136 30.5659 327.343 30.2415 326.53 31.6482C326.018 32.5348 326.107 33.8698 326.261 34.8299C326.386 35.6176 327.032 36.6782 326.495 37.4092C325.791 38.366 324.044 37.9236 323.268 38.9879C322.088 40.6066 322.75 44.3039 324.406 45.5224C326.732 47.2341 325.344 43.0335 325.201 42.2686C324.845 40.3524 326.83 40.613 328.186 39.8391C328.913 39.424 329.043 39.3437 329.21 38.4574C329.364 37.641 329.283 36.9933 329.088 36.1134C328.428 33.128 329.582 33.6155 331.954 32.9578C333.999 32.3899 333.836 30.7552 333.316 29.0368C332.908 27.6899 331.693 25.4803 333.009 24.3319C333.532 23.8761 334.325 24.1643 334.438 23.2131C334.514 22.571 333.652 21.5183 333.2 21.1491C331.64 19.876 330.371 22.1178 329.737 23.4371Z" fill="#310058"/>
</svg>
