<svg width="34" height="17" viewBox="0 0 34 17" fill="none" xmlns="http://www.w3.org/2000/svg">
<path d="M12.096 14.432H6.432L5.592 17H0L6.216 0.0079999H12.36L18.552 17H12.936L12.096 14.432ZM10.8 10.424L9.264 5.696L7.728 10.424H10.8ZM33.6585 5.84C33.6585 6.912 33.4105 7.888 32.9145 8.768C32.4185 9.632 31.6825 10.32 30.7065 10.832C29.7465 11.344 28.5785 11.6 27.2025 11.6H25.0905V17H19.7625V0.0079999H27.2025C29.2825 0.0079999 30.8745 0.536 31.9785 1.592C33.0985 2.648 33.6585 4.064 33.6585 5.84ZM26.6025 7.4C27.7065 7.4 28.2585 6.88 28.2585 5.84C28.2585 4.8 27.7065 4.28 26.6025 4.28H25.0905V7.4H26.6025Z" fill="#FF4878"/>
</svg>
